<?xml version="1.0" encoding="UTF-8"?>
<!DOCTYPE svg PUBLIC "-//W3C//DTD SVG 1.1//EN" "http://www.w3.org/Graphics/SVG/1.1/DTD/svg11.dtd">
<!-- Creator: CorelDRAW -->
<svg xmlns="http://www.w3.org/2000/svg" xml:space="preserve" width="5.1693in" height="5.1693in" version="1.1" style="shape-rendering:geometricPrecision; text-rendering:geometricPrecision; image-rendering:optimizeQuality; fill-rule:evenodd; clip-rule:evenodd"
viewBox="0 0 6114.74 6114.74"
 xmlns:xlink="http://www.w3.org/1999/xlink"
 xmlns:xodm="http://www.corel.com/coreldraw/odm/2003">
 <defs>
  <style type="text/css">
   <![CDATA[
    .fil1 {fill:url(#id0)}
    .fil0 {fill:url(#id1)}
   ]]>
  </style>
  <linearGradient id="id0" gradientUnits="userSpaceOnUse" x1="728.22" y1="1566.22" x2="5189.34" y2="5189.34">
   <stop offset="0" style="stop-opacity:1; stop-color:#AD343E"/>
   <stop offset="1" style="stop-opacity:1; stop-color:#FF564D"/>
  </linearGradient>
  <linearGradient id="id1" gradientUnits="userSpaceOnUse" xlink:href="#id0" x1="925.4" y1="1084.84" x2="5386.52" y2="4918.22">
  </linearGradient>
 </defs>
 <g id="Layer_x0020_1">
  <metadata id="CorelCorpID_0Corel-Layer"/>
  <g id="_1891070291232">
   <path class="fil0" d="M925.4 925.4l4263.94 0 0 4263.94 -4263.94 0 0 -4263.94zm640.82 -825.68l0 628.5 -739.41 0c-59.61,0 -98.59,38.98 -98.59,98.59l0 739.41 -628.5 0c-132.28,0 -132.28,197.18 0,197.18l628.5 0 0 492.94 -616.18 0c-149.39,0 -149.39,209.5 0,209.5l616.18 0 0 492.94 -628.5 0c-132.28,0 -132.28,197.18 0,197.18l628.5 0 0 492.94 -616.18 0c-149.39,0 -149.39,209.5 0,209.5l616.18 0 0 492.94 -628.5 0c-132.28,0 -132.28,197.18 0,197.18l628.5 0 0 739.41c0,59.61 38.98,98.59 98.59,98.59l739.41 0 0 628.5c0,132.28 197.18,132.28 197.18,0l0 -628.5 492.94 0 0 616.18c0,149.39 209.5,149.39 209.5,0l0 -616.18 492.94 0 0 628.5c0,132.28 197.18,132.28 197.18,0l0 -628.5 492.94 0 0 616.18c0,149.39 209.5,149.39 209.5,0l0 -616.18 492.94 0 0 628.5c0,132.28 197.18,132.28 197.18,0l0 -628.5 739.41 0c59.61,0 98.59,-38.98 98.59,-98.59l0 -739.41 628.5 0c132.28,0 132.28,-197.18 0,-197.18l-628.5 0 0 -492.94 616.18 0c149.39,0 149.39,-209.5 0,-209.5l-616.18 0 0 -492.94 628.5 0c132.28,0 132.28,-197.18 0,-197.18l-628.5 0 0 -492.94 616.18 0c149.39,0 149.39,-209.5 0,-209.5l-616.18 0 0 -492.94 628.5 0c132.28,0 132.28,-197.18 0,-197.18l-628.5 0 0 -739.41c0,-59.61 -38.98,-98.59 -98.59,-98.59l-739.41 0 0 -628.5c0,-132.28 -197.18,-132.28 -197.18,0l0 628.5 -492.94 0 0 -616.18c0,-149.39 -209.5,-149.39 -209.5,0l0 616.18 -492.94 0 0 -628.5c0,-132.28 -197.18,-132.28 -197.18,0l0 628.5 -492.94 0 0 -616.18c0,-149.39 -209.5,-149.39 -209.5,0l0 616.18 -492.94 0 0 -628.5c0,-132.28 -197.18,-132.28 -197.18,0z"/>
   <path class="fil1" d="M3550.31 3772.14c0,-315.65 406.68,-314.18 406.68,0 0,76.95 -95.58,172.53 -172.53,172.53l-61.62 0c-76.96,0 -172.53,-95.57 -172.53,-172.53zm-776.38 -887.3c251.86,0 290.18,315 99.03,394.96 -77.15,32.27 -167.44,19.5 -225.96,-33.88 -53.69,-48.96 -82.39,-137.55 -53.18,-220.2 30.82,-87.18 124.26,-140.88 180.11,-140.88zm-825.67 345.06c-251.86,0 -290.18,-315 -99.02,-394.96 77.15,-32.27 167.44,-19.5 225.96,33.88 148.8,135.7 19.46,361.08 -126.93,361.08zm1602.06 -850.32c0,-281.81 406.68,-281.81 406.68,0 0,260.32 -406.68,258.68 -406.68,0zm98.59 -406.68c-445.29,103.74 -389.48,797.6 100.29,805.24 489.55,7.65 563.76,-699.34 109.21,-805.24 0,-326.42 -16.33,-200.99 181.75,-385.13 32.74,-30.44 173.07,-157.1 200.28,-157.1l443.65 0 0 3253.41 -443.65 0c-24.7,0 -361.19,-298.04 -371.92,-318.19 -26.17,-49.15 -10.11,-159.03 -10.11,-224.04 444.03,-103.45 392.71,-797.55 -100.29,-805.24 -489.46,-7.65 -563.3,699.45 -109.2,805.24 0,405.6 -16.79,269.9 151.03,440.49 40.09,40.75 80.04,60.35 107.76,101.74l-1441.86 0 0 -616.18c0,-92.09 -194.6,-178.23 -308,-234.23 -33.41,-16.5 -91.33,-53 -123.32,-61.53l0 -357.38c60.74,-5.06 122.03,-44.67 164.37,-82.11 276.63,-244.65 147.34,-718.92 -299.92,-718.92 -111.89,0 -222.8,79.38 -286.81,156.83 -22.36,27.06 -20.94,26.58 -38.1,60.5 -141.29,279.28 62,566.96 263.3,583.71 0,94.48 0.06,188.96 0,283.44 -0.07,113.15 -21.82,182.77 56.99,226.45 66.83,37.05 118.21,61.92 185.43,98.01 62.69,33.65 176.58,83.5 176.58,119.18l0 542.23 -825.67 0 0 -3253.41 825.67 0 0 616.18c0,91.9 119.66,133.03 189.14,168.24l242.18 127.52 0 357.38c-143.35,11.93 -308.09,192.75 -308.09,369.71 0,137.58 23.35,216.83 125.96,317.7 154.95,152.32 403.48,157.47 567.36,-6.41 255.44,-255.44 68.2,-659.67 -188.05,-680.99 0,-94.48 -0.06,-188.96 0,-283.44 0.14,-221.65 45.17,-179.56 -336.89,-377.88 -34.76,-18.04 -82.12,-26.14 -82.12,-65.77l0 -542.23 1441.86 0 -213.42 180.93c-68.79,67.3 -45.37,217.13 -45.37,361.3zm-2415.41 -640.82l0 3450.59c0,59.61 38.98,98.59 98.59,98.59l3450.59 0c59.61,0 98.59,-38.98 98.59,-98.59l0 -3450.59c0,-59.61 -38.98,-98.59 -98.59,-98.59l-3450.59 0c-59.61,0 -98.59,38.98 -98.59,98.59z"/>
  </g>
 </g>
</svg>
