<?xml version="1.0" encoding="UTF-8"?>
<!DOCTYPE svg PUBLIC "-//W3C//DTD SVG 1.1//EN" "http://www.w3.org/Graphics/SVG/1.1/DTD/svg11.dtd">
<!-- Creator: CorelDRAW -->
<svg xmlns="http://www.w3.org/2000/svg" xml:space="preserve" width="5.16602in" height="5.16602in" version="1.1" style="shape-rendering:geometricPrecision; text-rendering:geometricPrecision; image-rendering:optimizeQuality; fill-rule:evenodd; clip-rule:evenodd"
viewBox="0 0 2290.37 2290.37"
 xmlns:xlink="http://www.w3.org/1999/xlink"
 xmlns:xodm="http://www.corel.com/coreldraw/odm/2003">
 <defs>
  <style type="text/css">
   <![CDATA[
    .str0 {stroke:black;stroke-width:3.08;stroke-miterlimit:2.61313}
    .fil2 {fill:none}
    .fil0 {fill:black}
    .fil1 {fill:url(#id3)}
   ]]>
  </style>
    <clipPath id="id0">
     <path d="M73.88 2068.72l2142.6 0 0 147.77 -2142.6 0 0 -147.77zm1145.18 -443.3l517.18 0 0 147.77 -517.18 0 0 -147.77zm-997.42 92.35c139.27,73.69 378.05,73.62 517.18,0 0,53.51 14.92,69.46 -91.72,102.23 -127.77,39.26 -289.71,34.71 -402.38,-28.34 -31.16,-17.44 -23.09,-28.12 -23.09,-73.88zm0 -147.77c139.27,73.69 378.05,73.62 517.18,0 0,45.1 7.25,55.49 -23.1,73.87 -52.62,31.86 -169.98,55.43 -235.49,55.43 -51.73,0 -127.12,-14.86 -166.84,-27.1 -108.93,-33.58 -91.75,-48.7 -91.75,-102.19zm258.59 -166.24c43.66,0 103.42,10.8 141.36,20.26 41.33,10.3 92.94,24.25 112.61,53.62 -17.4,25.98 -71.22,43.21 -108.9,52.72 -107.71,27.16 -178.47,27.82 -286.43,0.91 -47.46,-11.83 -82.98,-26.07 -117.23,-49.01 35.33,-52.77 191.11,-78.5 258.59,-78.5zm406.36 27.71l0 -27.71 1182.12 0c0,78.54 -23.67,147.77 -120.06,147.77l-942.01 0c-70.63,0 -120.06,-49.43 -120.06,-120.06zm0 -572.59c0,-71.67 48.39,-120.06 120.06,-120.06l942.01 0c70.63,0 120.06,49.43 120.06,120.06l0 471 -1182.12 0 0 -471zm-738.83 609.53l0 314c0,92.39 225.22,138.53 314,138.53 85.19,0 120.54,-3.15 200.57,-25.7 26.9,-7.58 46.01,-14.57 67.36,-24.99 103.99,-50.79 83.02,-88.05 83.02,-203.28 0,-63.11 0,-126.22 0,-189.33 0.62,0.98 1.27,1.47 1.48,3.14l8.4 23.93c3.41,9.58 8.07,19.15 13.32,28.24 67.18,116.25 182.3,92.46 309.28,92.46l0 147.77 -147.77 0 0 73.88 960.48 0 0 -73.88 -147.77 0 0 -147.77 161.62 0c85.18,0 170.85,-85.67 170.85,-170.85l0 -198.56 73.88 0 0 738.83 -2142.6 0 0 -738.83 738.83 0 0 198.56 -9.44 -13.65c-15.18,-24.17 -13.91,-22.46 -41.31,-41.81 -123.02,-86.84 -344.68,-83.25 -492,-34.76 -42.66,14.04 -122.2,54.35 -122.2,104.07zm664.95 -632.62l0 346.32 -480.24 0 0 -332.47 -73.88 0 0 332.47 -110.82 0c0,-186.71 -18.9,-330.17 116.59,-465.23 38.99,-38.86 64.07,-60.32 117.31,-85.87 111.81,-53.68 240.44,-51.24 348,1.53 43.61,21.4 99.01,58.82 124.6,97.04 -16.67,31.49 -41.56,57.13 -41.56,106.21zm-480.24 -540.27c0,-28.37 10.83,-65.29 19.02,-87.18 7.98,-21.31 28.49,-50.04 44.31,-66.52 16.6,-17.29 42.44,-35.17 65.29,-45.53 90.71,-41.12 182.3,-20.94 246.73,40.92 15.51,14.89 36.44,44.08 46.22,64.6 52.12,109.31 1.05,247 -109.4,295.05 -58.96,25.65 -122.07,25.65 -181.03,0 -76.45,-33.26 -131.13,-117.76 -131.13,-201.34zm-73.88 -18.47c0,94.06 18.08,159.34 84.26,225.12 8.29,8.24 14.44,15.56 23.26,22.92l26.4 19.78c-77.32,18.02 -166.56,96.41 -215.67,153.75 -122.46,142.99 -102.95,305.09 -102.95,483.49l-73.88 0 0 1108.24 2290.37 0 0 -1108.24 -147.77 0 0 -346.32c0,-85.19 -85.67,-170.85 -170.85,-170.85l-983.57 0c-24.34,0 -57.4,10.56 -73.88,18.47 -15.18,-28.69 -57.73,-61.45 -85.03,-81.21 -25.33,-18.33 -81.06,-49.75 -113.53,-57.32 4.29,-3.73 4.44,-3.95 10.27,-8.2 67.36,-49.15 123.64,-133.08 123.64,-222.68l0 -36.94c0,-139.44 -137.62,-277.06 -277.06,-277.06l-36.94 0c-139.44,0 -277.06,137.62 -277.06,277.06z"/>
    </clipPath>
    <clipPath id="id1">
     <path d="M1292.95 480.24c0,-46.65 73.88,-46.65 73.88,0 0,46.65 -73.88,46.65 -73.88,0zm517.18 -73.88c0,-46.65 73.88,-46.65 73.88,0 0,46.65 -73.88,46.65 -73.88,0zm-812.71 -147.77c0,-46.65 73.88,-46.65 73.88,0 0,46.65 -73.88,46.65 -73.88,0zm591.06 -73.88c0,-46.65 73.88,-46.65 73.88,0 0,46.65 -73.88,46.65 -73.88,0zm517.18 -73.88c0,-46.65 73.88,-46.65 73.88,0 0,46.65 -73.88,46.65 -73.88,0zm-73.88 -9.24c0,47.22 1.16,25.35 9.24,60.03l-144.28 142.01c-58.46,-10.31 -38.32,-13.34 -100.45,1.14l-68.15 -70.38c5.4,-30.41 8.12,-10.1 8.12,-58.91 0,-56.52 -48.54,-101.59 -120.06,-101.59 -56.52,0 -101.59,48.54 -101.59,120.06 0,19.86 5.38,25.03 9.24,41.56l-144.28 142.01c-27.74,-4.89 -63.33,-18.02 -98.97,2.63 -9.05,5.24 -5.66,3.34 -10.72,7.75 -20.86,-13.97 -41.88,-31.39 -63.33,-47.49 -22.27,-16.72 -44.25,-34.94 -65.96,-49.48 18.3,-38.15 -0.78,-143.15 -115.44,-143.15 -56.52,0 -101.59,48.54 -101.59,120.06 0,88.93 118.32,128.78 170.85,83.12l129.29 96.97c-16.25,33.87 2,77.8 16.39,99.05 48.65,71.8 200.64,63.4 200.64,-75.96 0,-19.86 -5.38,-25.03 -9.24,-41.56l144.28 -142.01c58.46,10.31 38.32,13.34 100.45,-1.14l68.15 70.38c-5.4,30.41 -8.12,10.1 -8.12,58.91 0,56.52 48.54,101.59 120.06,101.59 56.52,0 101.59,-48.54 101.59,-120.06 0,-19.86 -5.38,-25.03 -9.24,-41.56l144.28 -142.01c30.32,5.35 10.07,8.1 58.89,8.1 56.52,0 101.59,-48.54 101.59,-120.06 0,-56.52 -48.54,-101.59 -120.06,-101.59 -50.8,0 -101.59,50.79 -101.59,101.59z"/>
    </clipPath>
    <clipPath id="id2">
     <path d="M1736.25 886.59l73.88 0 0 295.53 -73.88 0 0 -295.53zm-295.53 147.77l73.88 0 0 147.77 -73.88 0 0 -147.77zm-295.53 -73.88l73.88 0 0 221.65 -73.88 0 0 -221.65zm517.18 221.65l-73.88 0 0 -221.65 -221.65 0 0 221.65 -73.88 0 0 -295.53 -221.65 0 0 295.53 -73.88 0 0 73.88 960.48 0 0 -73.88 -73.88 0 0 -369.41 -221.65 0 0 369.41z"/>
    </clipPath>
  <linearGradient id="id3" gradientUnits="objectBoundingBox" x1="27.8909%" y1="25.7458%" x2="78.2833%" y2="74.0396%">
   <stop offset="0" style="stop-opacity:1; stop-color:#AD343E"/>
   <stop offset="0.619608" style="stop-opacity:1; stop-color:#D64545"/>
   <stop offset="1" style="stop-opacity:1; stop-color:#FF564D"/>
  </linearGradient>
 </defs>
 <g id="Layer_x0020_1">
  <metadata id="CorelCorpID_0Corel-Layer"/>
  <g id="_1891081516000">
   <path class="fil0" d="M73.88 2068.72l2142.6 0 0 147.77 -2142.6 0 0 -147.77zm1145.18 -443.3l517.18 0 0 147.77 -517.18 0 0 -147.77zm-997.42 92.35c139.27,73.69 378.05,73.62 517.18,0 0,53.51 14.92,69.46 -91.72,102.23 -127.77,39.26 -289.71,34.71 -402.38,-28.34 -31.16,-17.44 -23.09,-28.12 -23.09,-73.88zm0 -147.77c139.27,73.69 378.05,73.62 517.18,0 0,45.1 7.25,55.49 -23.1,73.87 -52.62,31.86 -169.98,55.43 -235.49,55.43 -51.73,0 -127.12,-14.86 -166.84,-27.1 -108.93,-33.58 -91.75,-48.7 -91.75,-102.19zm258.59 -166.24c43.66,0 103.42,10.8 141.36,20.26 41.33,10.3 92.94,24.25 112.61,53.62 -17.4,25.98 -71.22,43.21 -108.9,52.72 -107.71,27.16 -178.47,27.82 -286.43,0.91 -47.46,-11.83 -82.98,-26.07 -117.23,-49.01 35.33,-52.77 191.11,-78.5 258.59,-78.5zm406.36 27.71l0 -27.71 1182.12 0c0,78.54 -23.67,147.77 -120.06,147.77l-942.01 0c-70.63,0 -120.06,-49.43 -120.06,-120.06zm0 -572.59c0,-71.67 48.39,-120.06 120.06,-120.06l942.01 0c70.63,0 120.06,49.43 120.06,120.06l0 471 -1182.12 0 0 -471zm-738.83 609.53l0 314c0,92.39 225.22,138.53 314,138.53 85.19,0 120.54,-3.15 200.57,-25.7 26.9,-7.58 46.01,-14.57 67.36,-24.99 103.99,-50.79 83.02,-88.05 83.02,-203.28 0,-63.11 0,-126.22 0,-189.33 0.62,0.98 1.27,1.47 1.48,3.14l8.4 23.93c3.41,9.58 8.07,19.15 13.32,28.24 67.18,116.25 182.3,92.46 309.28,92.46l0 147.77 -147.77 0 0 73.88 960.48 0 0 -73.88 -147.77 0 0 -147.77 161.62 0c85.18,0 170.85,-85.67 170.85,-170.85l0 -198.56 73.88 0 0 738.83 -2142.6 0 0 -738.83 738.83 0 0 198.56 -9.44 -13.65c-15.18,-24.17 -13.91,-22.46 -41.31,-41.81 -123.02,-86.84 -344.68,-83.25 -492,-34.76 -42.66,14.04 -122.2,54.35 -122.2,104.07zm664.95 -632.62l0 346.32 -480.24 0 0 -332.47 -73.88 0 0 332.47 -110.82 0c0,-186.71 -18.9,-330.17 116.59,-465.23 38.99,-38.86 64.07,-60.32 117.31,-85.87 111.81,-53.68 240.44,-51.24 348,1.53 43.61,21.4 99.01,58.82 124.6,97.04 -16.67,31.49 -41.56,57.13 -41.56,106.21zm-480.24 -540.27c0,-28.37 10.83,-65.29 19.02,-87.18 7.98,-21.31 28.49,-50.04 44.31,-66.52 16.6,-17.29 42.44,-35.17 65.29,-45.53 90.71,-41.12 182.3,-20.94 246.73,40.92 15.51,14.89 36.44,44.08 46.22,64.6 52.12,109.31 1.05,247 -109.4,295.05 -58.96,25.65 -122.07,25.65 -181.03,0 -76.45,-33.26 -131.13,-117.76 -131.13,-201.34zm-73.88 -18.47c0,94.06 18.08,159.34 84.26,225.12 8.29,8.24 14.44,15.56 23.26,22.92l26.4 19.78c-77.32,18.02 -166.56,96.41 -215.67,153.75 -122.46,142.99 -102.95,305.09 -102.95,483.49l-73.88 0 0 1108.24 2290.37 0 0 -1108.24 -147.77 0 0 -346.32c0,-85.19 -85.67,-170.85 -170.85,-170.85l-983.57 0c-24.34,0 -57.4,10.56 -73.88,18.47 -15.18,-28.69 -57.73,-61.45 -85.03,-81.21 -25.33,-18.33 -81.06,-49.75 -113.53,-57.32 4.29,-3.73 4.44,-3.95 10.27,-8.2 67.36,-49.15 123.64,-133.08 123.64,-222.68l0 -36.94c0,-139.44 -137.62,-277.06 -277.06,-277.06l-36.94 0c-139.44,0 -277.06,137.62 -277.06,277.06z"/>
   <g style="clip-path:url(#id0)">
    <g>
     <rect class="fil1 str0" x="-60.6" y="-72.81" width="2456.35" height="2486.23"/>
    </g>
   </g>
   <path class="fil2" d="M73.88 2068.72l2142.6 0 0 147.77 -2142.6 0 0 -147.77zm1145.18 -443.3l517.18 0 0 147.77 -517.18 0 0 -147.77zm-997.42 92.35c139.27,73.69 378.05,73.62 517.18,0 0,53.51 14.92,69.46 -91.72,102.23 -127.77,39.26 -289.71,34.71 -402.38,-28.34 -31.16,-17.44 -23.09,-28.12 -23.09,-73.88zm0 -147.77c139.27,73.69 378.05,73.62 517.18,0 0,45.1 7.25,55.49 -23.1,73.87 -52.62,31.86 -169.98,55.43 -235.49,55.43 -51.73,0 -127.12,-14.86 -166.84,-27.1 -108.93,-33.58 -91.75,-48.7 -91.75,-102.19zm258.59 -166.24c43.66,0 103.42,10.8 141.36,20.26 41.33,10.3 92.94,24.25 112.61,53.62 -17.4,25.98 -71.22,43.21 -108.9,52.72 -107.71,27.16 -178.47,27.82 -286.43,0.91 -47.46,-11.83 -82.98,-26.07 -117.23,-49.01 35.33,-52.77 191.11,-78.5 258.59,-78.5zm406.36 27.71l0 -27.71 1182.12 0c0,78.54 -23.67,147.77 -120.06,147.77l-942.01 0c-70.63,0 -120.06,-49.43 -120.06,-120.06zm0 -572.59c0,-71.67 48.39,-120.06 120.06,-120.06l942.01 0c70.63,0 120.06,49.43 120.06,120.06l0 471 -1182.12 0 0 -471zm-738.83 609.53l0 314c0,92.39 225.22,138.53 314,138.53 85.19,0 120.54,-3.15 200.57,-25.7 26.9,-7.58 46.01,-14.57 67.36,-24.99 103.99,-50.79 83.02,-88.05 83.02,-203.28 0,-63.11 0,-126.22 0,-189.33 0.62,0.98 1.27,1.47 1.48,3.14l8.4 23.93c3.41,9.58 8.07,19.15 13.32,28.24 67.18,116.25 182.3,92.46 309.28,92.46l0 147.77 -147.77 0 0 73.88 960.48 0 0 -73.88 -147.77 0 0 -147.77 161.62 0c85.18,0 170.85,-85.67 170.85,-170.85l0 -198.56 73.88 0 0 738.83 -2142.6 0 0 -738.83 738.83 0 0 198.56 -9.44 -13.65c-15.18,-24.17 -13.91,-22.46 -41.31,-41.81 -123.02,-86.84 -344.68,-83.25 -492,-34.76 -42.66,14.04 -122.2,54.35 -122.2,104.07zm664.95 -632.62l0 346.32 -480.24 0 0 -332.47 -73.88 0 0 332.47 -110.82 0c0,-186.71 -18.9,-330.17 116.59,-465.23 38.99,-38.86 64.07,-60.32 117.31,-85.87 111.81,-53.68 240.44,-51.24 348,1.53 43.61,21.4 99.01,58.82 124.6,97.04 -16.67,31.49 -41.56,57.13 -41.56,106.21zm-480.24 -540.27c0,-28.37 10.83,-65.29 19.02,-87.18 7.98,-21.31 28.49,-50.04 44.31,-66.52 16.6,-17.29 42.44,-35.17 65.29,-45.53 90.71,-41.12 182.3,-20.94 246.73,40.92 15.51,14.89 36.44,44.08 46.22,64.6 52.12,109.31 1.05,247 -109.4,295.05 -58.96,25.65 -122.07,25.65 -181.03,0 -76.45,-33.26 -131.13,-117.76 -131.13,-201.34zm-73.88 -18.47c0,94.06 18.08,159.34 84.26,225.12 8.29,8.24 14.44,15.56 23.26,22.92l26.4 19.78c-77.32,18.02 -166.56,96.41 -215.67,153.75 -122.46,142.99 -102.95,305.09 -102.95,483.49l-73.88 0 0 1108.24 2290.37 0 0 -1108.24 -147.77 0 0 -346.32c0,-85.19 -85.67,-170.85 -170.85,-170.85l-983.57 0c-24.34,0 -57.4,10.56 -73.88,18.47 -15.18,-28.69 -57.73,-61.45 -85.03,-81.21 -25.33,-18.33 -81.06,-49.75 -113.53,-57.32 4.29,-3.73 4.44,-3.95 10.27,-8.2 67.36,-49.15 123.64,-133.08 123.64,-222.68l0 -36.94c0,-139.44 -137.62,-277.06 -277.06,-277.06l-36.94 0c-139.44,0 -277.06,137.62 -277.06,277.06z"/>
   <path class="fil0" d="M1292.95 480.24c0,-46.65 73.88,-46.65 73.88,0 0,46.65 -73.88,46.65 -73.88,0zm517.18 -73.88c0,-46.65 73.88,-46.65 73.88,0 0,46.65 -73.88,46.65 -73.88,0zm-812.71 -147.77c0,-46.65 73.88,-46.65 73.88,0 0,46.65 -73.88,46.65 -73.88,0zm591.06 -73.88c0,-46.65 73.88,-46.65 73.88,0 0,46.65 -73.88,46.65 -73.88,0zm517.18 -73.88c0,-46.65 73.88,-46.65 73.88,0 0,46.65 -73.88,46.65 -73.88,0zm-73.88 -9.24c0,47.22 1.16,25.35 9.24,60.03l-144.28 142.01c-58.46,-10.31 -38.32,-13.34 -100.45,1.14l-68.15 -70.38c5.4,-30.41 8.12,-10.1 8.12,-58.91 0,-56.52 -48.54,-101.59 -120.06,-101.59 -56.52,0 -101.59,48.54 -101.59,120.06 0,19.86 5.38,25.03 9.24,41.56l-144.28 142.01c-27.74,-4.89 -63.33,-18.02 -98.97,2.63 -9.05,5.24 -5.66,3.34 -10.72,7.75 -20.86,-13.97 -41.88,-31.39 -63.33,-47.49 -22.27,-16.72 -44.25,-34.94 -65.96,-49.48 18.3,-38.15 -0.78,-143.15 -115.44,-143.15 -56.52,0 -101.59,48.54 -101.59,120.06 0,88.93 118.32,128.78 170.85,83.12l129.29 96.97c-16.25,33.87 2,77.8 16.39,99.05 48.65,71.8 200.64,63.4 200.64,-75.96 0,-19.86 -5.38,-25.03 -9.24,-41.56l144.28 -142.01c58.46,10.31 38.32,13.34 100.45,-1.14l68.15 70.38c-5.4,30.41 -8.12,10.1 -8.12,58.91 0,56.52 48.54,101.59 120.06,101.59 56.52,0 101.59,-48.54 101.59,-120.06 0,-19.86 -5.38,-25.03 -9.24,-41.56l144.28 -142.01c30.32,5.35 10.07,8.1 58.89,8.1 56.52,0 101.59,-48.54 101.59,-120.06 0,-56.52 -48.54,-101.59 -120.06,-101.59 -50.8,0 -101.59,50.79 -101.59,101.59z"/>
   <g style="clip-path:url(#id1)">
    <g>
     <rect class="fil1 str0" x="-60.6" y="-72.81" width="2456.35" height="2486.23"/>
    </g>
   </g>
   <path class="fil2" d="M1292.95 480.24c0,-46.65 73.88,-46.65 73.88,0 0,46.65 -73.88,46.65 -73.88,0zm517.18 -73.88c0,-46.65 73.88,-46.65 73.88,0 0,46.65 -73.88,46.65 -73.88,0zm-812.71 -147.77c0,-46.65 73.88,-46.65 73.88,0 0,46.65 -73.88,46.65 -73.88,0zm591.06 -73.88c0,-46.65 73.88,-46.65 73.88,0 0,46.65 -73.88,46.65 -73.88,0zm517.18 -73.88c0,-46.65 73.88,-46.65 73.88,0 0,46.65 -73.88,46.65 -73.88,0zm-73.88 -9.24c0,47.22 1.16,25.35 9.24,60.03l-144.28 142.01c-58.46,-10.31 -38.32,-13.34 -100.45,1.14l-68.15 -70.38c5.4,-30.41 8.12,-10.1 8.12,-58.91 0,-56.52 -48.54,-101.59 -120.06,-101.59 -56.52,0 -101.59,48.54 -101.59,120.06 0,19.86 5.38,25.03 9.24,41.56l-144.28 142.01c-27.74,-4.89 -63.33,-18.02 -98.97,2.63 -9.05,5.24 -5.66,3.34 -10.72,7.75 -20.86,-13.97 -41.88,-31.39 -63.33,-47.49 -22.27,-16.72 -44.25,-34.94 -65.96,-49.48 18.3,-38.15 -0.78,-143.15 -115.44,-143.15 -56.52,0 -101.59,48.54 -101.59,120.06 0,88.93 118.32,128.78 170.85,83.12l129.29 96.97c-16.25,33.87 2,77.8 16.39,99.05 48.65,71.8 200.64,63.4 200.64,-75.96 0,-19.86 -5.38,-25.03 -9.24,-41.56l144.28 -142.01c58.46,10.31 38.32,13.34 100.45,-1.14l68.15 70.38c-5.4,30.41 -8.12,10.1 -8.12,58.91 0,56.52 48.54,101.59 120.06,101.59 56.52,0 101.59,-48.54 101.59,-120.06 0,-19.86 -5.38,-25.03 -9.24,-41.56l144.28 -142.01c30.32,5.35 10.07,8.1 58.89,8.1 56.52,0 101.59,-48.54 101.59,-120.06 0,-56.52 -48.54,-101.59 -120.06,-101.59 -50.8,0 -101.59,50.79 -101.59,101.59z"/>
   <path class="fil0" d="M1736.25 886.59l73.88 0 0 295.53 -73.88 0 0 -295.53zm-295.53 147.77l73.88 0 0 147.77 -73.88 0 0 -147.77zm-295.53 -73.88l73.88 0 0 221.65 -73.88 0 0 -221.65zm517.18 221.65l-73.88 0 0 -221.65 -221.65 0 0 221.65 -73.88 0 0 -295.53 -221.65 0 0 295.53 -73.88 0 0 73.88 960.48 0 0 -73.88 -73.88 0 0 -369.41 -221.65 0 0 369.41z"/>
   <g style="clip-path:url(#id2)">
    <g>
     <rect class="fil1 str0" x="-60.6" y="-72.81" width="2456.35" height="2486.23"/>
    </g>
   </g>
   <path class="fil2" d="M1736.25 886.59l73.88 0 0 295.53 -73.88 0 0 -295.53zm-295.53 147.77l73.88 0 0 147.77 -73.88 0 0 -147.77zm-295.53 -73.88l73.88 0 0 221.65 -73.88 0 0 -221.65zm517.18 221.65l-73.88 0 0 -221.65 -221.65 0 0 221.65 -73.88 0 0 -295.53 -221.65 0 0 295.53 -73.88 0 0 73.88 960.48 0 0 -73.88 -73.88 0 0 -369.41 -221.65 0 0 369.41z"/>
  </g>
 </g>
</svg>
