<?xml version="1.0" encoding="UTF-8"?>
<!DOCTYPE svg PUBLIC "-//W3C//DTD SVG 1.1//EN" "http://www.w3.org/Graphics/SVG/1.1/DTD/svg11.dtd">
<!-- Creator: CorelDRAW -->
<svg xmlns="http://www.w3.org/2000/svg" xml:space="preserve" width="2.72716in" height="3.00928in" version="1.1" style="shape-rendering:geometricPrecision; text-rendering:geometricPrecision; image-rendering:optimizeQuality; fill-rule:evenodd; clip-rule:evenodd"
viewBox="0 0 1584.04 1747.91"
 xmlns:xlink="http://www.w3.org/1999/xlink"
 xmlns:xodm="http://www.corel.com/coreldraw/odm/2003">
 <defs>
  <style type="text/css">
   <![CDATA[
    .str0 {stroke:black;stroke-width:4.03;stroke-miterlimit:2.61313}
    .fil2 {fill:none}
    .fil0 {fill:black}
    .fil1 {fill:url(#id2)}
   ]]>
  </style>
    <clipPath id="id0">
     <path d="M512.08 1665.98c0,-22.75 11.75,-40.97 34.14,-40.97l491.6 0c33.19,0 34.14,32.08 34.14,54.62l-559.88 0 0 -13.65zm763.87 -1665.98l36.67 0c94.3,11.8 174.14,112.37 114.38,225.32 93.27,0 157.04,57.09 157.04,143.38l0 870.54c0,83.57 -62.3,146.79 -139.97,146.79l-532.57 0c0.64,28.94 34.64,132.33 37.55,167.28 46.98,0 100.32,-4.8 132.65,10.74 53.93,25.92 58.53,68.74 58.53,115.58l109.24 0c44.03,0 44.03,68.28 0,68.28l-914.92 0c-44.03,0 -44.03,-68.28 0,-68.28l109.24 0c0,-33.36 -2.51,-53.29 19.41,-83.01 40.14,-54.45 102.61,-43.3 171.77,-43.3 2.91,-34.95 36.91,-138.34 37.55,-167.28l-532.56 0c-24.49,0 -41.93,-5.55 -58.1,-13.59 -50.55,-25.14 -81.87,-66.67 -81.87,-133.2l0 -870.54c0,-93.68 70.57,-143.87 160.43,-143.4l904.7 0.02c26.87,-40.13 106.54,-170.36 141.31,-196.67 21.78,-16.47 45.6,-25.62 69.51,-28.65zm-531.72 1386.04l95.59 0c0.51,22.98 35.82,146.47 37.55,167.28l-170.69 0c1.07,-12.84 6.83,-30.53 9.59,-41.62l27.96 -125.66zm-37.55 -522.32c-0.49,-21.98 -6.83,-37.94 -6.83,-64.86 0,-53.67 -1.15,-106.98 38.34,-149.42 26.85,-28.86 52.46,-38.71 100.61,-46.3 35.18,-5.55 48.45,13.64 94.17,47.96 60.02,45.05 63.89,34.8 63.89,103.39 0,27.01 -17.93,52.41 -33.21,65.79 -50.55,44.26 -162.87,-6.34 -256.97,43.46zm303.84 -242.39c-13.72,-9.19 -27.32,-21.11 -40.99,-30.7 -14.15,-9.94 -29.44,-22.85 -44.36,-30.75 10.02,-14.96 58.41,-84.22 61.45,-95.59 13.37,3.11 81.52,56.57 99,68.28 -4.11,6.13 -12.42,16.09 -18.12,22.84 -11.06,13.08 -46.56,58.94 -56.98,65.92zm-150.21 -88.76c-154.65,0 -232.14,100.82 -232.14,249.21 0,25.5 12.12,144.33 30.25,164.35 30.39,33.56 62.13,-13.16 91.55,-25.48 40.06,-16.77 102.53,-9.14 151.31,-9.14 112.92,0 187.88,-101.43 161.7,-213.09 -4.34,-18.53 -7.39,-20.38 4.6,-33.6 52.83,-58.26 121.82,-152.86 174.21,-211.65l64.67 -78.72c78.14,-96.99 47.45,-77.44 141.05,-77.44 34.89,0 64.86,29.97 64.86,64.86l0 655.47 -1071.96 0c-43,0 -50.54,71.69 6.83,71.69l1065.13 0 0 167.28c0,21.17 -27.08,58.04 -61.45,58.04l-1317.76 0c-30.81,0 -61.45,-30.64 -61.45,-61.45l0 -163.87c64.27,0 129.73,12.79 129.73,-37.55 0,-47.11 -69.3,-34.14 -129.73,-34.14l0 -662.29c0,-23.79 27.08,-56.46 64.76,-58.14 40.22,-1.8 85.6,0.11 126.42,0.11 250.35,0 500.7,0 751.06,0 -4.59,17.19 -133.49,197.5 -153.63,235.56zm273.11 -54.62c-15.4,-3.59 -83.01,-58.69 -102.42,-71.69 3.56,-15.29 19.39,-32.39 28.69,-46.42 27.54,-41.58 164.19,-251.38 181.97,-268.66 69.03,-67.11 178.82,26.37 116.16,109.33 -26.23,34.72 -220.71,263.66 -224.4,277.45z"/>
    </clipPath>
    <clipPath id="id1">
     <path d="M269.7 1051.48c0,49.1 68.28,49.1 68.28,0 0,-44.81 -68.28,-44.81 -68.28,0z"/>
    </clipPath>
  <linearGradient id="id2" gradientUnits="objectBoundingBox" x1="27.8909%" y1="25.7458%" x2="78.2833%" y2="74.0396%">
   <stop offset="0" style="stop-opacity:1; stop-color:#AD343E"/>
   <stop offset="0.619608" style="stop-opacity:1; stop-color:#D64545"/>
   <stop offset="1" style="stop-opacity:1; stop-color:#FF564D"/>
  </linearGradient>
 </defs>
 <g id="Layer_x0020_1">
  <metadata id="CorelCorpID_0Corel-Layer"/>
  <g id="_1891184400096">
   <path class="fil0" d="M512.08 1665.98c0,-22.75 11.75,-40.97 34.14,-40.97l491.6 0c33.19,0 34.14,32.08 34.14,54.62l-559.88 0 0 -13.65zm763.87 -1665.98l36.67 0c94.3,11.8 174.14,112.37 114.38,225.32 93.27,0 157.04,57.09 157.04,143.38l0 870.54c0,83.57 -62.3,146.79 -139.97,146.79l-532.57 0c0.64,28.94 34.64,132.33 37.55,167.28 46.98,0 100.32,-4.8 132.65,10.74 53.93,25.92 58.53,68.74 58.53,115.58l109.24 0c44.03,0 44.03,68.28 0,68.28l-914.92 0c-44.03,0 -44.03,-68.28 0,-68.28l109.24 0c0,-33.36 -2.51,-53.29 19.41,-83.01 40.14,-54.45 102.61,-43.3 171.77,-43.3 2.91,-34.95 36.91,-138.34 37.55,-167.28l-532.56 0c-24.49,0 -41.93,-5.55 -58.1,-13.59 -50.55,-25.14 -81.87,-66.67 -81.87,-133.2l0 -870.54c0,-93.68 70.57,-143.87 160.43,-143.4l904.7 0.02c26.87,-40.13 106.54,-170.36 141.31,-196.67 21.78,-16.47 45.6,-25.62 69.51,-28.65zm-531.72 1386.04l95.59 0c0.51,22.98 35.82,146.47 37.55,167.28l-170.69 0c1.07,-12.84 6.83,-30.53 9.59,-41.62l27.96 -125.66zm-37.55 -522.32c-0.49,-21.98 -6.83,-37.94 -6.83,-64.86 0,-53.67 -1.15,-106.98 38.34,-149.42 26.85,-28.86 52.46,-38.71 100.61,-46.3 35.18,-5.55 48.45,13.64 94.17,47.96 60.02,45.05 63.89,34.8 63.89,103.39 0,27.01 -17.93,52.41 -33.21,65.79 -50.55,44.26 -162.87,-6.34 -256.97,43.46zm303.84 -242.39c-13.72,-9.19 -27.32,-21.11 -40.99,-30.7 -14.15,-9.94 -29.44,-22.85 -44.36,-30.75 10.02,-14.96 58.41,-84.22 61.45,-95.59 13.37,3.11 81.52,56.57 99,68.28 -4.11,6.13 -12.42,16.09 -18.12,22.84 -11.06,13.08 -46.56,58.94 -56.98,65.92zm-150.21 -88.76c-154.65,0 -232.14,100.82 -232.14,249.21 0,25.5 12.12,144.33 30.25,164.35 30.39,33.56 62.13,-13.16 91.55,-25.48 40.06,-16.77 102.53,-9.14 151.31,-9.14 112.92,0 187.88,-101.43 161.7,-213.09 -4.34,-18.53 -7.39,-20.38 4.6,-33.6 52.83,-58.26 121.82,-152.86 174.21,-211.65l64.67 -78.72c78.14,-96.99 47.45,-77.44 141.05,-77.44 34.89,0 64.86,29.97 64.86,64.86l0 655.47 -1071.96 0c-43,0 -50.54,71.69 6.83,71.69l1065.13 0 0 167.28c0,21.17 -27.08,58.04 -61.45,58.04l-1317.76 0c-30.81,0 -61.45,-30.64 -61.45,-61.45l0 -163.87c64.27,0 129.73,12.79 129.73,-37.55 0,-47.11 -69.3,-34.14 -129.73,-34.14l0 -662.29c0,-23.79 27.08,-56.46 64.76,-58.14 40.22,-1.8 85.6,0.11 126.42,0.11 250.35,0 500.7,0 751.06,0 -4.59,17.19 -133.49,197.5 -153.63,235.56zm273.11 -54.62c-15.4,-3.59 -83.01,-58.69 -102.42,-71.69 3.56,-15.29 19.39,-32.39 28.69,-46.42 27.54,-41.58 164.19,-251.38 181.97,-268.66 69.03,-67.11 178.82,26.37 116.16,109.33 -26.23,34.72 -220.71,263.66 -224.4,277.45z"/>
   <g style="clip-path:url(#id0)">
    <g>
     <rect class="fil1 str0" x="-219.44" y="-51.46" width="1970.87" height="1994.85"/>
    </g>
   </g>
   <path class="fil2" d="M512.08 1665.98c0,-22.75 11.75,-40.97 34.14,-40.97l491.6 0c33.19,0 34.14,32.08 34.14,54.62l-559.88 0 0 -13.65zm763.87 -1665.98l36.67 0c94.3,11.8 174.14,112.37 114.38,225.32 93.27,0 157.04,57.09 157.04,143.38l0 870.54c0,83.57 -62.3,146.79 -139.97,146.79l-532.57 0c0.64,28.94 34.64,132.33 37.55,167.28 46.98,0 100.32,-4.8 132.65,10.74 53.93,25.92 58.53,68.74 58.53,115.58l109.24 0c44.03,0 44.03,68.28 0,68.28l-914.92 0c-44.03,0 -44.03,-68.28 0,-68.28l109.24 0c0,-33.36 -2.51,-53.29 19.41,-83.01 40.14,-54.45 102.61,-43.3 171.77,-43.3 2.91,-34.95 36.91,-138.34 37.55,-167.28l-532.56 0c-24.49,0 -41.93,-5.55 -58.1,-13.59 -50.55,-25.14 -81.87,-66.67 -81.87,-133.2l0 -870.54c0,-93.68 70.57,-143.87 160.43,-143.4l904.7 0.02c26.87,-40.13 106.54,-170.36 141.31,-196.67 21.78,-16.47 45.6,-25.62 69.51,-28.65zm-531.72 1386.04l95.59 0c0.51,22.98 35.82,146.47 37.55,167.28l-170.69 0c1.07,-12.84 6.83,-30.53 9.59,-41.62l27.96 -125.66zm-37.55 -522.32c-0.49,-21.98 -6.83,-37.94 -6.83,-64.86 0,-53.67 -1.15,-106.98 38.34,-149.42 26.85,-28.86 52.46,-38.71 100.61,-46.3 35.18,-5.55 48.45,13.64 94.17,47.96 60.02,45.05 63.89,34.8 63.89,103.39 0,27.01 -17.93,52.41 -33.21,65.79 -50.55,44.26 -162.87,-6.34 -256.97,43.46zm303.84 -242.39c-13.72,-9.19 -27.32,-21.11 -40.99,-30.7 -14.15,-9.94 -29.44,-22.85 -44.36,-30.75 10.02,-14.96 58.41,-84.22 61.45,-95.59 13.37,3.11 81.52,56.57 99,68.28 -4.11,6.13 -12.42,16.09 -18.12,22.84 -11.06,13.08 -46.56,58.94 -56.98,65.92zm-150.21 -88.76c-154.65,0 -232.14,100.82 -232.14,249.21 0,25.5 12.12,144.33 30.25,164.35 30.39,33.56 62.13,-13.16 91.55,-25.48 40.06,-16.77 102.53,-9.14 151.31,-9.14 112.92,0 187.88,-101.43 161.7,-213.09 -4.34,-18.53 -7.39,-20.38 4.6,-33.6 52.83,-58.26 121.82,-152.86 174.21,-211.65l64.67 -78.72c78.14,-96.99 47.45,-77.44 141.05,-77.44 34.89,0 64.86,29.97 64.86,64.86l0 655.47 -1071.96 0c-43,0 -50.54,71.69 6.83,71.69l1065.13 0 0 167.28c0,21.17 -27.08,58.04 -61.45,58.04l-1317.76 0c-30.81,0 -61.45,-30.64 -61.45,-61.45l0 -163.87c64.27,0 129.73,12.79 129.73,-37.55 0,-47.11 -69.3,-34.14 -129.73,-34.14l0 -662.29c0,-23.79 27.08,-56.46 64.76,-58.14 40.22,-1.8 85.6,0.11 126.42,0.11 250.35,0 500.7,0 751.06,0 -4.59,17.19 -133.49,197.5 -153.63,235.56zm273.11 -54.62c-15.4,-3.59 -83.01,-58.69 -102.42,-71.69 3.56,-15.29 19.39,-32.39 28.69,-46.42 27.54,-41.58 164.19,-251.38 181.97,-268.66 69.03,-67.11 178.82,26.37 116.16,109.33 -26.23,34.72 -220.71,263.66 -224.4,277.45z"/>
   <path class="fil0" d="M269.7 1051.48c0,49.1 68.28,49.1 68.28,0 0,-44.81 -68.28,-44.81 -68.28,0z"/>
   <g style="clip-path:url(#id1)">
    <g>
     <rect class="fil1 str0" x="-219.44" y="-51.46" width="1970.87" height="1994.85"/>
    </g>
   </g>
   <path class="fil2" d="M269.7 1051.48c0,49.1 68.28,49.1 68.28,0 0,-44.81 -68.28,-44.81 -68.28,0z"/>
  </g>
 </g>
</svg>
