<?xml version="1.0" encoding="UTF-8"?>
<!DOCTYPE svg PUBLIC "-//W3C//DTD SVG 1.1//EN" "http://www.w3.org/Graphics/SVG/1.1/DTD/svg11.dtd">
<!-- Creator: CorelDRAW -->
<svg xmlns="http://www.w3.org/2000/svg" xml:space="preserve" width="2.9498in" height="2.65483in" version="1.1" style="shape-rendering:geometricPrecision; text-rendering:geometricPrecision; image-rendering:optimizeQuality; fill-rule:evenodd; clip-rule:evenodd"
viewBox="0 0 983.83 885.45"
 xmlns:xlink="http://www.w3.org/1999/xlink"
 xmlns:xodm="http://www.corel.com/coreldraw/odm/2003">
 <defs>
  <style type="text/css">
   <![CDATA[
    .str0 {stroke:black;stroke-width:2.32;stroke-miterlimit:2.61313}
    .fil2 {fill:none}
    .fil0 {fill:black}
    .fil1 {fill:url(#id7)}
   ]]>
  </style>
    <clipPath id="id0">
     <path d="M803.46 557.51l32.8 0 0 163.97 -32.8 0 0 -163.97zm-770.67 155.77l0 -147.57c6.63,3.18 42.78,17.91 49.19,18.44l0 108.63c-14.82,7.85 -34.37,12.66 -49.19,20.49zm81.99 -106.58l32.79 0 0 65.59 -32.79 0 0 -65.59zm81.99 -393.53c0,-95.68 120.13,-155.59 195.25,-80.47 32.61,32.61 44.07,82.86 23.41,126.95 -27.08,57.78 -93.31,84.13 -150.36,57.39 -15.64,-7.32 -22.54,-11.96 -33.98,-23.41 -11.45,-11.45 -16.08,-18.34 -23.41,-33.98 -4.85,-10.35 -10.9,-32.47 -10.9,-46.49zm327.95 -32.79c0,-19.87 6.79,-46.03 13.63,-60.16 36.94,-76.33 123.48,-107.97 194.1,-73.79 99.81,48.3 112.77,169.14 43.9,238 -93.74,93.73 -251.63,23.66 -251.63,-104.05zm-32.8 -10.25c0,70.67 12.32,65.95 18.45,92.24l-59.45 0c7.59,-15.8 8.2,-40.85 8.2,-59.44 0,-30.56 -16.14,-62.43 -34.19,-84.69 -3.28,-4.05 -4.62,-6.56 -8.26,-10.19 -3.27,-3.27 -5.61,-4.61 -9.05,-7.34l-30.6 -20.65c-50.24,-26.12 -114.51,-17.49 -160.41,19.74 -12.6,10.23 -7.2,4.28 -17.53,17.31 -43.79,55.24 -47.96,122.04 -8.91,180.55l17.06 19.84c9.8,9.38 25.15,23.69 38.73,26.85l0 49.19 -53.29 0c-22.55,0 -45.09,22.55 -45.09,45.1l0 135.28 -32.79 0c-1.41,-16.96 -21.39,-20.45 -42.75,-28.99 -20.39,-8.14 -72.03,-38.08 -72.03,-3.81l0 196.77c0,33.96 50.37,4.85 70.56,-3.22 22.24,-8.89 42.79,-12.44 44.22,-29.57l32.79 0c1.79,21.48 32.89,26.13 32.91,-6.04l-0.12 -194.83c0,-96.34 -25.22,-77.89 155.77,-77.89l116.95 0.12c33.99,-0.02 25.35,-32.91 6.03,-32.91l-180.37 0 0 -34.84c36.5,0 60.58,11.53 111.11,-20.07 4.42,-2.76 9.38,-5.89 13.32,-9.23l12.33 -10.22c33.44,-30.27 -16,-24.02 113.31,-24.02 11.56,0 44.87,65.59 143.47,65.59l0 32.79 -147.57 0c-19.87,0 -26.4,32.44 3.97,32.93 65.19,1.05 162.79,-2.77 221.61,-0.24 11.83,0.51 20.38,6.79 20.38,18.56l0 389.44c0,42.72 -98.38,-5.25 -98.38,34.84 0,9.92 6.48,16.4 16.4,16.4l69.69 0c22.55,0 45.09,-22.55 45.09,-45.09l0 -86.09c60.5,0 34.23,-4.73 101.66,41.81 10.94,7.56 52.19,40.17 62.31,40.17 9.92,0 16.4,-6.48 16.4,-16.4l0 -131.17c0,-9.92 -6.48,-16.4 -16.4,-16.4 -21.96,0 -16.39,27.06 -16.39,49.19 0,21.86 0,43.73 0,65.59 -14.4,-9.64 -27.62,-19.04 -42.18,-29.57 -6.32,-4.57 -39.81,-26.25 -39.81,-31.92l0 -172.18c0,-6.82 34.51,-27.55 40.13,-31.61 14.42,-10.42 27.63,-20.35 41.86,-29.87 0,9.83 -1.55,131.76 0.97,138.4 5.68,14.91 31.82,11.79 31.82,-7.23l0 -163.97c0,-9.92 -6.48,-16.4 -16.4,-16.4 -11.46,0 -77.51,51.8 -92.23,61.49 -37.97,24.97 -14.19,20.49 -71.74,20.49l0 -86.08c0,-22.55 -22.55,-45.1 -45.09,-45.1l-53.29 0c0,-42.01 -2.5,-34.71 11.27,-37.92 6.27,-1.47 10.89,-3.27 15.65,-4.84 31.69,-10.47 49.93,-25.09 73.02,-47.91 21.96,-21.71 47.64,-69.21 47.64,-112.24 0,-35.45 -1,-55.35 -17.06,-87.48 -28.76,-57.52 -88.68,-103.14 -153.06,-103.14 -35.45,0 -55.35,1 -87.48,17.06 -39.33,19.66 -65.63,45.4 -85.39,84.73 -8.89,17.68 -17.75,42.79 -17.75,68.34z"/>
    </clipPath>
    <clipPath id="id1">
     <path d="M245.96 475.52l0 196.77c0,9.92 6.48,16.4 16.4,16.4l65.59 0c22,0 22,-32.8 0,-32.8l-49.19 0 0 -163.97 426.33 0 0 163.97 -311.55 0c-22,0 -22,32.8 0,32.8l327.95 0c9.92,0 16.4,-6.48 16.4,-16.4l0 -196.77c0,-9.92 -6.48,-16.4 -16.4,-16.4l-459.12 0c-9.92,0 -16.4,6.48 -16.4,16.4z"/>
    </clipPath>
    <clipPath id="id2">
     <path d="M147.57 770.67l0 69.69c0,22.55 22.55,45.09 45.09,45.09l102.49 0c18.59,0 29.75,-33.14 -8.11,-32.88l-82.19 0.2c-31.51,-0.04 -24.48,-19.49 -24.48,-65.7l426.33 0 0 65.59 -245.96 0c-22,0 -22,32.8 0,32.8l262.36 0c9.92,0 16.4,-6.48 16.4,-16.4l0 -98.38c0,-9.92 -6.48,-16.4 -16.4,-16.4l-459.12 0c-9.92,0 -16.4,6.48 -16.4,16.4z"/>
    </clipPath>
    <clipPath id="id3">
     <path d="M639.49 182.42c-1.04,-6.66 5.58,-19.89 9.04,-23.75 18.84,-20.93 54.09,-8.68 56.05,20.04 1.24,18.16 -14.36,32.85 -30.64,33.96 -18.08,1.23 -31.93,-13.94 -34.45,-30.25zm-32.8 -6.15c0,71.51 75.58,87.54 112.3,50.81 25.49,-25.49 25.49,-67.94 0,-93.43 -40.44,-40.44 -112.3,-11.72 -112.3,42.61z"/>
    </clipPath>
    <clipPath id="id4">
     <path d="M475.52 573.91c0,-20.71 32.8,-20.71 32.8,0 0,20.71 -32.8,20.71 -32.8,0zm-32.8 -4.1c0,71.45 98.39,71.45 98.39,0 0,-25.09 -21.55,-45.09 -53.29,-45.09 -22.55,0 -45.1,22.55 -45.1,45.09z"/>
    </clipPath>
    <clipPath id="id5">
     <path d="M606.7 573.91c0,-20.71 32.8,-20.71 32.8,0 0,20.71 -32.8,20.71 -32.8,0zm-32.8 -4.1c0,71.45 98.38,71.45 98.38,0 0,-25.09 -21.54,-45.09 -53.29,-45.09 -22.55,0 -45.09,22.55 -45.09,45.09z"/>
    </clipPath>
    <clipPath id="id6">
     <path d="M295.15 213.16c0,-20.71 32.8,-20.71 32.8,0 0,20.7 -32.8,20.7 -32.8,0zm-32.8 -4.1c0,71.44 98.38,71.44 98.38,0 0,-25.09 -21.54,-45.09 -53.29,-45.09 -22.55,0 -45.09,22.54 -45.09,45.09z"/>
    </clipPath>
  <linearGradient id="id7" gradientUnits="objectBoundingBox" x1="27.8909%" y1="25.7458%" x2="78.2833%" y2="74.0396%">
   <stop offset="0" style="stop-opacity:1; stop-color:#AD343E"/>
   <stop offset="0.619608" style="stop-opacity:1; stop-color:#D64545"/>
   <stop offset="1" style="stop-opacity:1; stop-color:#FF564D"/>
  </linearGradient>
 </defs>
 <g id="Layer_x0020_1">
  <metadata id="CorelCorpID_0Corel-Layer"/>
  <g id="_1891116427904">
   <path class="fil0" d="M803.46 557.51l32.8 0 0 163.97 -32.8 0 0 -163.97zm-770.67 155.77l0 -147.57c6.63,3.18 42.78,17.91 49.19,18.44l0 108.63c-14.82,7.85 -34.37,12.66 -49.19,20.49zm81.99 -106.58l32.79 0 0 65.59 -32.79 0 0 -65.59zm81.99 -393.53c0,-95.68 120.13,-155.59 195.25,-80.47 32.61,32.61 44.07,82.86 23.41,126.95 -27.08,57.78 -93.31,84.13 -150.36,57.39 -15.64,-7.32 -22.54,-11.96 -33.98,-23.41 -11.45,-11.45 -16.08,-18.34 -23.41,-33.98 -4.85,-10.35 -10.9,-32.47 -10.9,-46.49zm327.95 -32.79c0,-19.87 6.79,-46.03 13.63,-60.16 36.94,-76.33 123.48,-107.97 194.1,-73.79 99.81,48.3 112.77,169.14 43.9,238 -93.74,93.73 -251.63,23.66 -251.63,-104.05zm-32.8 -10.25c0,70.67 12.32,65.95 18.45,92.24l-59.45 0c7.59,-15.8 8.2,-40.85 8.2,-59.44 0,-30.56 -16.14,-62.43 -34.19,-84.69 -3.28,-4.05 -4.62,-6.56 -8.26,-10.19 -3.27,-3.27 -5.61,-4.61 -9.05,-7.34l-30.6 -20.65c-50.24,-26.12 -114.51,-17.49 -160.41,19.74 -12.6,10.23 -7.2,4.28 -17.53,17.31 -43.79,55.24 -47.96,122.04 -8.91,180.55l17.06 19.84c9.8,9.38 25.15,23.69 38.73,26.85l0 49.19 -53.29 0c-22.55,0 -45.09,22.55 -45.09,45.1l0 135.28 -32.79 0c-1.41,-16.96 -21.39,-20.45 -42.75,-28.99 -20.39,-8.14 -72.03,-38.08 -72.03,-3.81l0 196.77c0,33.96 50.37,4.85 70.56,-3.22 22.24,-8.89 42.79,-12.44 44.22,-29.57l32.79 0c1.79,21.48 32.89,26.13 32.91,-6.04l-0.12 -194.83c0,-96.34 -25.22,-77.89 155.77,-77.89l116.95 0.12c33.99,-0.02 25.35,-32.91 6.03,-32.91l-180.37 0 0 -34.84c36.5,0 60.58,11.53 111.11,-20.07 4.42,-2.76 9.38,-5.89 13.32,-9.23l12.33 -10.22c33.44,-30.27 -16,-24.02 113.31,-24.02 11.56,0 44.87,65.59 143.47,65.59l0 32.79 -147.57 0c-19.87,0 -26.4,32.44 3.97,32.93 65.19,1.05 162.79,-2.77 221.61,-0.24 11.83,0.51 20.38,6.79 20.38,18.56l0 389.44c0,42.72 -98.38,-5.25 -98.38,34.84 0,9.92 6.48,16.4 16.4,16.4l69.69 0c22.55,0 45.09,-22.55 45.09,-45.09l0 -86.09c60.5,0 34.23,-4.73 101.66,41.81 10.94,7.56 52.19,40.17 62.31,40.17 9.92,0 16.4,-6.48 16.4,-16.4l0 -131.17c0,-9.92 -6.48,-16.4 -16.4,-16.4 -21.96,0 -16.39,27.06 -16.39,49.19 0,21.86 0,43.73 0,65.59 -14.4,-9.64 -27.62,-19.04 -42.18,-29.57 -6.32,-4.57 -39.81,-26.25 -39.81,-31.92l0 -172.18c0,-6.82 34.51,-27.55 40.13,-31.61 14.42,-10.42 27.63,-20.35 41.86,-29.87 0,9.83 -1.55,131.76 0.97,138.4 5.68,14.91 31.82,11.79 31.82,-7.23l0 -163.97c0,-9.92 -6.48,-16.4 -16.4,-16.4 -11.46,0 -77.51,51.8 -92.23,61.49 -37.97,24.97 -14.19,20.49 -71.74,20.49l0 -86.08c0,-22.55 -22.55,-45.1 -45.09,-45.1l-53.29 0c0,-42.01 -2.5,-34.71 11.27,-37.92 6.27,-1.47 10.89,-3.27 15.65,-4.84 31.69,-10.47 49.93,-25.09 73.02,-47.91 21.96,-21.71 47.64,-69.21 47.64,-112.24 0,-35.45 -1,-55.35 -17.06,-87.48 -28.76,-57.52 -88.68,-103.14 -153.06,-103.14 -35.45,0 -55.35,1 -87.48,17.06 -39.33,19.66 -65.63,45.4 -85.39,84.73 -8.89,17.68 -17.75,42.79 -17.75,68.34z"/>
   <g style="clip-path:url(#id0)">
    <g>
     <rect class="fil1 str0" x="-23.51" y="-37.32" width="1070.82" height="1005.36"/>
    </g>
   </g>
   <path class="fil2" d="M803.46 557.51l32.8 0 0 163.97 -32.8 0 0 -163.97zm-770.67 155.77l0 -147.57c6.63,3.18 42.78,17.91 49.19,18.44l0 108.63c-14.82,7.85 -34.37,12.66 -49.19,20.49zm81.99 -106.58l32.79 0 0 65.59 -32.79 0 0 -65.59zm81.99 -393.53c0,-95.68 120.13,-155.59 195.25,-80.47 32.61,32.61 44.07,82.86 23.41,126.95 -27.08,57.78 -93.31,84.13 -150.36,57.39 -15.64,-7.32 -22.54,-11.96 -33.98,-23.41 -11.45,-11.45 -16.08,-18.34 -23.41,-33.98 -4.85,-10.35 -10.9,-32.47 -10.9,-46.49zm327.95 -32.79c0,-19.87 6.79,-46.03 13.63,-60.16 36.94,-76.33 123.48,-107.97 194.1,-73.79 99.81,48.3 112.77,169.14 43.9,238 -93.74,93.73 -251.63,23.66 -251.63,-104.05zm-32.8 -10.25c0,70.67 12.32,65.95 18.45,92.24l-59.45 0c7.59,-15.8 8.2,-40.85 8.2,-59.44 0,-30.56 -16.14,-62.43 -34.19,-84.69 -3.28,-4.05 -4.62,-6.56 -8.26,-10.19 -3.27,-3.27 -5.61,-4.61 -9.05,-7.34l-30.6 -20.65c-50.24,-26.12 -114.51,-17.49 -160.41,19.74 -12.6,10.23 -7.2,4.28 -17.53,17.31 -43.79,55.24 -47.96,122.04 -8.91,180.55l17.06 19.84c9.8,9.38 25.15,23.69 38.73,26.85l0 49.19 -53.29 0c-22.55,0 -45.09,22.55 -45.09,45.1l0 135.28 -32.79 0c-1.41,-16.96 -21.39,-20.45 -42.75,-28.99 -20.39,-8.14 -72.03,-38.08 -72.03,-3.81l0 196.77c0,33.96 50.37,4.85 70.56,-3.22 22.24,-8.89 42.79,-12.44 44.22,-29.57l32.79 0c1.79,21.48 32.89,26.13 32.91,-6.04l-0.12 -194.83c0,-96.34 -25.22,-77.89 155.77,-77.89l116.95 0.12c33.99,-0.02 25.35,-32.91 6.03,-32.91l-180.37 0 0 -34.84c36.5,0 60.58,11.53 111.11,-20.07 4.42,-2.76 9.38,-5.89 13.32,-9.23l12.33 -10.22c33.44,-30.27 -16,-24.02 113.31,-24.02 11.56,0 44.87,65.59 143.47,65.59l0 32.79 -147.57 0c-19.87,0 -26.4,32.44 3.97,32.93 65.19,1.05 162.79,-2.77 221.61,-0.24 11.83,0.51 20.38,6.79 20.38,18.56l0 389.44c0,42.72 -98.38,-5.25 -98.38,34.84 0,9.92 6.48,16.4 16.4,16.4l69.69 0c22.55,0 45.09,-22.55 45.09,-45.09l0 -86.09c60.5,0 34.23,-4.73 101.66,41.81 10.94,7.56 52.19,40.17 62.31,40.17 9.92,0 16.4,-6.48 16.4,-16.4l0 -131.17c0,-9.92 -6.48,-16.4 -16.4,-16.4 -21.96,0 -16.39,27.06 -16.39,49.19 0,21.86 0,43.73 0,65.59 -14.4,-9.64 -27.62,-19.04 -42.18,-29.57 -6.32,-4.57 -39.81,-26.25 -39.81,-31.92l0 -172.18c0,-6.82 34.51,-27.55 40.13,-31.61 14.42,-10.42 27.63,-20.35 41.86,-29.87 0,9.83 -1.55,131.76 0.97,138.4 5.68,14.91 31.82,11.79 31.82,-7.23l0 -163.97c0,-9.92 -6.48,-16.4 -16.4,-16.4 -11.46,0 -77.51,51.8 -92.23,61.49 -37.97,24.97 -14.19,20.49 -71.74,20.49l0 -86.08c0,-22.55 -22.55,-45.1 -45.09,-45.1l-53.29 0c0,-42.01 -2.5,-34.71 11.27,-37.92 6.27,-1.47 10.89,-3.27 15.65,-4.84 31.69,-10.47 49.93,-25.09 73.02,-47.91 21.96,-21.71 47.64,-69.21 47.64,-112.24 0,-35.45 -1,-55.35 -17.06,-87.48 -28.76,-57.52 -88.68,-103.14 -153.06,-103.14 -35.45,0 -55.35,1 -87.48,17.06 -39.33,19.66 -65.63,45.4 -85.39,84.73 -8.89,17.68 -17.75,42.79 -17.75,68.34z"/>
   <path class="fil0" d="M245.96 475.52l0 196.77c0,9.92 6.48,16.4 16.4,16.4l65.59 0c22,0 22,-32.8 0,-32.8l-49.19 0 0 -163.97 426.33 0 0 163.97 -311.55 0c-22,0 -22,32.8 0,32.8l327.95 0c9.92,0 16.4,-6.48 16.4,-16.4l0 -196.77c0,-9.92 -6.48,-16.4 -16.4,-16.4l-459.12 0c-9.92,0 -16.4,6.48 -16.4,16.4z"/>
   <g style="clip-path:url(#id1)">
    <g>
     <rect class="fil1 str0" x="-23.51" y="-37.32" width="1070.82" height="1005.36"/>
    </g>
   </g>
   <path class="fil2" d="M245.96 475.52l0 196.77c0,9.92 6.48,16.4 16.4,16.4l65.59 0c22,0 22,-32.8 0,-32.8l-49.19 0 0 -163.97 426.33 0 0 163.97 -311.55 0c-22,0 -22,32.8 0,32.8l327.95 0c9.92,0 16.4,-6.48 16.4,-16.4l0 -196.77c0,-9.92 -6.48,-16.4 -16.4,-16.4l-459.12 0c-9.92,0 -16.4,6.48 -16.4,16.4z"/>
   <path class="fil0" d="M147.57 770.67l0 69.69c0,22.55 22.55,45.09 45.09,45.09l102.49 0c18.59,0 29.75,-33.14 -8.11,-32.88l-82.19 0.2c-31.51,-0.04 -24.48,-19.49 -24.48,-65.7l426.33 0 0 65.59 -245.96 0c-22,0 -22,32.8 0,32.8l262.36 0c9.92,0 16.4,-6.48 16.4,-16.4l0 -98.38c0,-9.92 -6.48,-16.4 -16.4,-16.4l-459.12 0c-9.92,0 -16.4,6.48 -16.4,16.4z"/>
   <g style="clip-path:url(#id2)">
    <g>
     <rect class="fil1 str0" x="-23.51" y="-37.32" width="1070.82" height="1005.36"/>
    </g>
   </g>
   <path class="fil2" d="M147.57 770.67l0 69.69c0,22.55 22.55,45.09 45.09,45.09l102.49 0c18.59,0 29.75,-33.14 -8.11,-32.88l-82.19 0.2c-31.51,-0.04 -24.48,-19.49 -24.48,-65.7l426.33 0 0 65.59 -245.96 0c-22,0 -22,32.8 0,32.8l262.36 0c9.92,0 16.4,-6.48 16.4,-16.4l0 -98.38c0,-9.92 -6.48,-16.4 -16.4,-16.4l-459.12 0c-9.92,0 -16.4,6.48 -16.4,16.4z"/>
   <path class="fil0" d="M639.49 182.42c-1.04,-6.66 5.58,-19.89 9.04,-23.75 18.84,-20.93 54.09,-8.68 56.05,20.04 1.24,18.16 -14.36,32.85 -30.64,33.96 -18.08,1.23 -31.93,-13.94 -34.45,-30.25zm-32.8 -6.15c0,71.51 75.58,87.54 112.3,50.81 25.49,-25.49 25.49,-67.94 0,-93.43 -40.44,-40.44 -112.3,-11.72 -112.3,42.61z"/>
   <g style="clip-path:url(#id3)">
    <g>
     <rect class="fil1 str0" x="-23.51" y="-37.32" width="1070.82" height="1005.36"/>
    </g>
   </g>
   <path class="fil2" d="M639.49 182.42c-1.04,-6.66 5.58,-19.89 9.04,-23.75 18.84,-20.93 54.09,-8.68 56.05,20.04 1.24,18.16 -14.36,32.85 -30.64,33.96 -18.08,1.23 -31.93,-13.94 -34.45,-30.25zm-32.8 -6.15c0,71.51 75.58,87.54 112.3,50.81 25.49,-25.49 25.49,-67.94 0,-93.43 -40.44,-40.44 -112.3,-11.72 -112.3,42.61z"/>
   <path class="fil0" d="M475.52 573.91c0,-20.71 32.8,-20.71 32.8,0 0,20.71 -32.8,20.71 -32.8,0zm-32.8 -4.1c0,71.45 98.39,71.45 98.39,0 0,-25.09 -21.55,-45.09 -53.29,-45.09 -22.55,0 -45.1,22.55 -45.1,45.09z"/>
   <g style="clip-path:url(#id4)">
    <g>
     <rect class="fil1 str0" x="-23.51" y="-37.32" width="1070.82" height="1005.36"/>
    </g>
   </g>
   <path class="fil2" d="M475.52 573.91c0,-20.71 32.8,-20.71 32.8,0 0,20.71 -32.8,20.71 -32.8,0zm-32.8 -4.1c0,71.45 98.39,71.45 98.39,0 0,-25.09 -21.55,-45.09 -53.29,-45.09 -22.55,0 -45.1,22.55 -45.1,45.09z"/>
   <path class="fil0" d="M606.7 573.91c0,-20.71 32.8,-20.71 32.8,0 0,20.71 -32.8,20.71 -32.8,0zm-32.8 -4.1c0,71.45 98.38,71.45 98.38,0 0,-25.09 -21.54,-45.09 -53.29,-45.09 -22.55,0 -45.09,22.55 -45.09,45.09z"/>
   <g style="clip-path:url(#id5)">
    <g>
     <rect class="fil1 str0" x="-23.51" y="-37.32" width="1070.82" height="1005.36"/>
    </g>
   </g>
   <path class="fil2" d="M606.7 573.91c0,-20.71 32.8,-20.71 32.8,0 0,20.71 -32.8,20.71 -32.8,0zm-32.8 -4.1c0,71.45 98.38,71.45 98.38,0 0,-25.09 -21.54,-45.09 -53.29,-45.09 -22.55,0 -45.09,22.55 -45.09,45.09z"/>
   <path class="fil0" d="M295.15 213.16c0,-20.71 32.8,-20.71 32.8,0 0,20.7 -32.8,20.7 -32.8,0zm-32.8 -4.1c0,71.44 98.38,71.44 98.38,0 0,-25.09 -21.54,-45.09 -53.29,-45.09 -22.55,0 -45.09,22.54 -45.09,45.09z"/>
   <g style="clip-path:url(#id6)">
    <g>
     <rect class="fil1 str0" x="-23.51" y="-37.32" width="1070.82" height="1005.36"/>
    </g>
   </g>
   <path class="fil2" d="M295.15 213.16c0,-20.71 32.8,-20.71 32.8,0 0,20.7 -32.8,20.7 -32.8,0zm-32.8 -4.1c0,71.44 98.38,71.44 98.38,0 0,-25.09 -21.54,-45.09 -53.29,-45.09 -22.55,0 -45.09,22.54 -45.09,45.09z"/>
  </g>
 </g>
</svg>
