<?xml version="1.0" encoding="UTF-8"?>
<!DOCTYPE svg PUBLIC "-//W3C//DTD SVG 1.1//EN" "http://www.w3.org/Graphics/SVG/1.1/DTD/svg11.dtd">
<!-- Creator: CorelDRAW -->
<svg xmlns="http://www.w3.org/2000/svg" xml:space="preserve" width="5.00838in" height="5.00838in" version="1.1" style="shape-rendering:geometricPrecision; text-rendering:geometricPrecision; image-rendering:optimizeQuality; fill-rule:evenodd; clip-rule:evenodd"
viewBox="0 0 2799.92 2799.92"
 xmlns:xlink="http://www.w3.org/1999/xlink"
 xmlns:xodm="http://www.corel.com/coreldraw/odm/2003">
 <defs>
  <style type="text/css">
   <![CDATA[
    .str0 {stroke:black;stroke-width:3.88;stroke-miterlimit:2.61313}
    .fil2 {fill:none}
    .fil0 {fill:black}
    .fil1 {fill:url(#id5)}
   ]]>
  </style>
    <clipPath id="id0">
     <path d="M1865.9 2285.24c0,-58.84 93.19,-58.84 93.19,0 0,58.84 -93.19,58.84 -93.19,0zm-372.75 0c0,-58.84 93.19,-58.84 93.19,0 0,58.84 -93.19,58.84 -93.19,0zm-652.31 0c0,-58.84 93.19,-58.84 93.19,0 0,58.84 -93.19,58.84 -93.19,0zm-186.37 -291.21l0 -1188.14c0,-90.39 61.04,-151.43 151.43,-151.43l1188.14 0c89.09,0 151.43,62.34 151.43,151.43l0 1188.14c0,89.09 -62.34,151.43 -151.43,151.43l-1188.14 0c-89.09,0 -151.43,-62.34 -151.43,-151.43zm1584.19 -221.32c0,-58.84 93.19,-58.84 93.19,0 0,58.84 -93.19,58.84 -93.19,0zm-1770.56 0c0,-58.84 93.19,-58.84 93.19,0 0,58.84 -93.19,58.84 -93.19,0zm1770.56 -372.75c0,-58.84 93.19,-58.84 93.19,0 0,58.84 -93.19,58.84 -93.19,0zm-1770.56 0c0,-58.84 93.19,-58.84 93.19,0 0,58.84 -93.19,58.84 -93.19,0zm1770.56 -372.75c0,-58.84 93.19,-58.84 93.19,0 0,58.84 -93.19,58.84 -93.19,0zm-1770.56 0c0,-58.84 93.19,-58.84 93.19,0 0,58.84 -93.19,58.84 -93.19,0zm1397.81 -512.53c0,-58.84 93.19,-58.84 93.19,0 0,58.84 -93.19,58.84 -93.19,0zm-372.75 0c0,-58.84 93.19,-58.84 93.19,0 0,58.84 -93.19,58.84 -93.19,0zm-652.31 0c0,-58.84 93.19,-58.84 93.19,0 0,58.84 -93.19,58.84 -93.19,0zm0 -133.96c-77.84,41.18 -107.61,93.67 -87.36,180.55 -14.49,6.96 -30.79,8.26 -48.46,15.61 -42.07,17.5 -83.06,52.17 -107.85,90.18 -45.26,69.4 -35.9,118.28 -35.9,226.19 -87.02,-20.27 -139.4,9.59 -180.55,87.36l-110.66 0c-16.87,-72.4 -49.96,-156.87 -74.87,-227.99 -25.51,-72.84 -75.97,-51.57 -146.45,-51.57 -28.17,0 -46.59,18.42 -46.59,46.59 0,54.91 50.9,46.59 104.84,46.59 7.67,32.91 21.41,67.2 32.75,101.21 66.48,199.38 23.22,178.35 240.99,178.35 12.38,23.41 21.15,45.31 42.93,61.9 38.82,29.57 89.96,36.56 137.62,25.46l0 104.83c-87.02,-20.27 -139.4,9.59 -180.55,87.36l-314.84 -0.33c-87.53,0.07 -86.17,92.6 -5.87,93.89l320.71 -0.37c41.18,77.84 93.67,107.6 180.55,87.36l0 104.83c-87.02,-20.27 -139.4,9.59 -180.55,87.36 -213.95,0 -174.46,-21.3 -239.53,173.98 -10.59,31.79 -26.37,71.93 -34.2,105.58 -53.93,0 -104.84,-8.32 -104.84,46.59 0,66.39 96.82,46.59 139.78,46.59 52.57,0 64.81,-86.63 77.91,-125.94 16.49,-49.44 39.05,-105.68 50.22,-153.63l110.66 0c41.18,77.84 93.67,107.61 180.55,87.36 0,134.96 -3.35,218.15 98.84,291.38 12.17,8.72 26.2,16.7 40.86,23.21 17.02,7.56 37.34,10.12 52.5,17.39 -20.27,87.02 9.59,139.4 87.36,180.55l-0.33 314.84c0.07,87.53 92.6,86.17 93.89,5.87l-0.37 -320.71c77.84,-41.18 107.61,-93.67 87.36,-180.55l384.4 0c-20.27,87.02 9.59,139.4 87.36,180.55l-0.33 314.84c0.07,87.53 92.6,86.17 93.89,5.87l-0.38 -320.71c77.84,-41.18 107.61,-93.67 87.36,-180.55l104.84 0c-20.27,87.02 9.59,139.4 87.36,180.55l-0.33 314.84c0.07,87.53 92.6,86.17 93.89,5.87l-0.37 -320.71c77.84,-41.18 107.61,-93.67 87.36,-180.55 53.74,-25.79 99.88,-19.28 156.3,-105.79 45.26,-69.4 35.9,-118.28 35.9,-226.19 87.02,20.27 139.4,-9.59 180.55,-87.36l110.66 0c11.17,47.95 33.73,104.18 50.22,153.63 8.98,26.92 16.34,50.65 24.65,74.36 25.51,72.84 75.97,51.57 146.45,51.57 28.17,0 46.59,-18.42 46.59,-46.59 0,-54.91 -50.9,-46.59 -104.84,-46.59 -15.94,-68.43 -45.58,-138.85 -67.67,-206.07 -33.19,-101 -60.04,-73.49 -206.07,-73.49 -41.18,-77.84 -93.67,-107.61 -180.55,-87.36l0 -104.83c87.02,20.27 139.4,-9.59 180.55,-87.36l314.84 0.33c87.53,-0.07 86.17,-92.6 5.87,-93.89l-320.71 0.37c-41.18,-77.84 -93.67,-107.6 -180.55,-87.36l0 -104.83c87.02,20.27 139.4,-9.59 180.55,-87.36 213.95,0 174.46,21.3 239.53,-173.98 10.59,-31.79 26.37,-71.93 34.2,-105.58 53.93,0 104.84,8.32 104.84,-46.59 0,-66.39 -96.82,-46.59 -139.78,-46.59 -33.53,0 -43.16,23.83 -51.74,47.27 -9.87,26.99 -16.65,50.1 -26.18,78.66 -16.49,49.44 -39.05,105.68 -50.22,153.63l-110.66 0c-41.18,-77.84 -93.67,-107.61 -180.55,-87.36 0,-134.96 3.35,-218.15 -98.84,-291.38 -28.03,-20.09 -63.67,-26.35 -93.36,-40.6 20.27,-87.02 -9.59,-139.4 -87.36,-180.55l0.33 -314.84c-0.07,-87.53 -92.6,-86.17 -93.89,-5.87l0.37 320.71c-77.84,41.18 -107.61,93.67 -87.36,180.55l-104.84 0c20.28,-87.02 -9.59,-139.4 -87.36,-180.55l0.33 -314.84c-0.07,-87.53 -92.6,-86.17 -93.89,-5.87l0.37 320.71c-77.84,41.18 -107.61,93.67 -87.36,180.55l-384.4 0c20.27,-87.02 -9.59,-139.4 -87.36,-180.55l0.33 -314.84c-0.07,-87.53 -92.6,-86.17 -93.89,-5.87l0.37 320.71z"/>
    </clipPath>
    <clipPath id="id1">
     <path d="M840.84 1906.67l0 -1013.41c0,-28.79 23.63,-52.42 52.42,-52.42l1013.41 0c28.79,0 52.42,23.63 52.42,52.42l0 1013.41c0,28.79 -23.63,52.42 -52.42,52.42l-1013.41 0c-28.79,0 -52.42,-23.63 -52.42,-52.42zm-93.19 -1030.89l0 1048.36c0,64.07 64.06,128.13 128.13,128.13l1048.36 0c64.07,0 128.13,-64.06 128.13,-128.13l0 -1048.36c0,-64.07 -64.06,-128.13 -128.13,-128.13l-1048.36 0c-64.07,0 -128.13,64.06 -128.13,128.13z"/>
    </clipPath>
    <clipPath id="id2">
     <path d="M934.02 1399.96c0,30.93 30.43,50.83 48.05,68.43l116.48 116.48c17.61,17.62 37.5,48.05 68.43,48.05 28.17,0 46.59,-18.42 46.59,-46.59 0,-46.07 -125.2,-129.81 -163.08,-186.37 37.87,-56.56 163.08,-140.3 163.08,-186.37 0,-28.17 -18.42,-46.59 -46.59,-46.59 -30.93,0 -50.83,30.43 -68.43,48.05l-116.48 116.48c-17.62,17.61 -48.05,37.5 -48.05,68.43z"/>
    </clipPath>
    <clipPath id="id3">
     <path d="M1586.33 1213.59c0,46.07 125.2,129.81 163.08,186.37 -37.87,56.56 -163.08,140.3 -163.08,186.37 0,28.17 18.42,46.59 46.59,46.59 32.77,0 92.85,-72.47 126.68,-106.29 119.53,-119.53 139.53,-113.89 58.24,-195.11l-116.48 -116.48c-17.61,-17.62 -37.5,-48.05 -68.43,-48.05 -28.17,0 -46.59,18.42 -46.59,46.59z"/>
    </clipPath>
    <clipPath id="id4">
     <path d="M1306.77 1586.33c0,49.28 38.84,46.59 58.24,46.59 39.07,0 62.25,-144.17 75.71,-198.02 9.03,-36.12 17.22,-68.9 26.79,-107.17 12.77,-51.1 58.8,-160.74 -20.96,-160.74 -45.84,0 -49.07,44.3 -58.25,81.53 -12.37,50.13 -81.53,310.48 -81.53,337.81z"/>
    </clipPath>
  <linearGradient id="id5" gradientUnits="objectBoundingBox" x1="27.8909%" y1="25.7458%" x2="78.2833%" y2="74.0396%">
   <stop offset="0" style="stop-opacity:1; stop-color:#AD343E"/>
   <stop offset="0.619608" style="stop-opacity:1; stop-color:#D64545"/>
   <stop offset="1" style="stop-opacity:1; stop-color:#FF564D"/>
  </linearGradient>
 </defs>
 <g id="Layer_x0020_1">
  <metadata id="CorelCorpID_0Corel-Layer"/>
  <g id="_1891073796224">
   <path class="fil0" d="M1865.9 2285.24c0,-58.84 93.19,-58.84 93.19,0 0,58.84 -93.19,58.84 -93.19,0zm-372.75 0c0,-58.84 93.19,-58.84 93.19,0 0,58.84 -93.19,58.84 -93.19,0zm-652.31 0c0,-58.84 93.19,-58.84 93.19,0 0,58.84 -93.19,58.84 -93.19,0zm-186.37 -291.21l0 -1188.14c0,-90.39 61.04,-151.43 151.43,-151.43l1188.14 0c89.09,0 151.43,62.34 151.43,151.43l0 1188.14c0,89.09 -62.34,151.43 -151.43,151.43l-1188.14 0c-89.09,0 -151.43,-62.34 -151.43,-151.43zm1584.19 -221.32c0,-58.84 93.19,-58.84 93.19,0 0,58.84 -93.19,58.84 -93.19,0zm-1770.56 0c0,-58.84 93.19,-58.84 93.19,0 0,58.84 -93.19,58.84 -93.19,0zm1770.56 -372.75c0,-58.84 93.19,-58.84 93.19,0 0,58.84 -93.19,58.84 -93.19,0zm-1770.56 0c0,-58.84 93.19,-58.84 93.19,0 0,58.84 -93.19,58.84 -93.19,0zm1770.56 -372.75c0,-58.84 93.19,-58.84 93.19,0 0,58.84 -93.19,58.84 -93.19,0zm-1770.56 0c0,-58.84 93.19,-58.84 93.19,0 0,58.84 -93.19,58.84 -93.19,0zm1397.81 -512.53c0,-58.84 93.19,-58.84 93.19,0 0,58.84 -93.19,58.84 -93.19,0zm-372.75 0c0,-58.84 93.19,-58.84 93.19,0 0,58.84 -93.19,58.84 -93.19,0zm-652.31 0c0,-58.84 93.19,-58.84 93.19,0 0,58.84 -93.19,58.84 -93.19,0zm0 -133.96c-77.84,41.18 -107.61,93.67 -87.36,180.55 -14.49,6.96 -30.79,8.26 -48.46,15.61 -42.07,17.5 -83.06,52.17 -107.85,90.18 -45.26,69.4 -35.9,118.28 -35.9,226.19 -87.02,-20.27 -139.4,9.59 -180.55,87.36l-110.66 0c-16.87,-72.4 -49.96,-156.87 -74.87,-227.99 -25.51,-72.84 -75.97,-51.57 -146.45,-51.57 -28.17,0 -46.59,18.42 -46.59,46.59 0,54.91 50.9,46.59 104.84,46.59 7.67,32.91 21.41,67.2 32.75,101.21 66.48,199.38 23.22,178.35 240.99,178.35 12.38,23.41 21.15,45.31 42.93,61.9 38.82,29.57 89.96,36.56 137.62,25.46l0 104.83c-87.02,-20.27 -139.4,9.59 -180.55,87.36l-314.84 -0.33c-87.53,0.07 -86.17,92.6 -5.87,93.89l320.71 -0.37c41.18,77.84 93.67,107.6 180.55,87.36l0 104.83c-87.02,-20.27 -139.4,9.59 -180.55,87.36 -213.95,0 -174.46,-21.3 -239.53,173.98 -10.59,31.79 -26.37,71.93 -34.2,105.58 -53.93,0 -104.84,-8.32 -104.84,46.59 0,66.39 96.82,46.59 139.78,46.59 52.57,0 64.81,-86.63 77.91,-125.94 16.49,-49.44 39.05,-105.68 50.22,-153.63l110.66 0c41.18,77.84 93.67,107.61 180.55,87.36 0,134.96 -3.35,218.15 98.84,291.38 12.17,8.72 26.2,16.7 40.86,23.21 17.02,7.56 37.34,10.12 52.5,17.39 -20.27,87.02 9.59,139.4 87.36,180.55l-0.33 314.84c0.07,87.53 92.6,86.17 93.89,5.87l-0.37 -320.71c77.84,-41.18 107.61,-93.67 87.36,-180.55l384.4 0c-20.27,87.02 9.59,139.4 87.36,180.55l-0.33 314.84c0.07,87.53 92.6,86.17 93.89,5.87l-0.38 -320.71c77.84,-41.18 107.61,-93.67 87.36,-180.55l104.84 0c-20.27,87.02 9.59,139.4 87.36,180.55l-0.33 314.84c0.07,87.53 92.6,86.17 93.89,5.87l-0.37 -320.71c77.84,-41.18 107.61,-93.67 87.36,-180.55 53.74,-25.79 99.88,-19.28 156.3,-105.79 45.26,-69.4 35.9,-118.28 35.9,-226.19 87.02,20.27 139.4,-9.59 180.55,-87.36l110.66 0c11.17,47.95 33.73,104.18 50.22,153.63 8.98,26.92 16.34,50.65 24.65,74.36 25.51,72.84 75.97,51.57 146.45,51.57 28.17,0 46.59,-18.42 46.59,-46.59 0,-54.91 -50.9,-46.59 -104.84,-46.59 -15.94,-68.43 -45.58,-138.85 -67.67,-206.07 -33.19,-101 -60.04,-73.49 -206.07,-73.49 -41.18,-77.84 -93.67,-107.61 -180.55,-87.36l0 -104.83c87.02,20.27 139.4,-9.59 180.55,-87.36l314.84 0.33c87.53,-0.07 86.17,-92.6 5.87,-93.89l-320.71 0.37c-41.18,-77.84 -93.67,-107.6 -180.55,-87.36l0 -104.83c87.02,20.27 139.4,-9.59 180.55,-87.36 213.95,0 174.46,21.3 239.53,-173.98 10.59,-31.79 26.37,-71.93 34.2,-105.58 53.93,0 104.84,8.32 104.84,-46.59 0,-66.39 -96.82,-46.59 -139.78,-46.59 -33.53,0 -43.16,23.83 -51.74,47.27 -9.87,26.99 -16.65,50.1 -26.18,78.66 -16.49,49.44 -39.05,105.68 -50.22,153.63l-110.66 0c-41.18,-77.84 -93.67,-107.61 -180.55,-87.36 0,-134.96 3.35,-218.15 -98.84,-291.38 -28.03,-20.09 -63.67,-26.35 -93.36,-40.6 20.27,-87.02 -9.59,-139.4 -87.36,-180.55l0.33 -314.84c-0.07,-87.53 -92.6,-86.17 -93.89,-5.87l0.37 320.71c-77.84,41.18 -107.61,93.67 -87.36,180.55l-104.84 0c20.28,-87.02 -9.59,-139.4 -87.36,-180.55l0.33 -314.84c-0.07,-87.53 -92.6,-86.17 -93.89,-5.87l0.37 320.71c-77.84,41.18 -107.61,93.67 -87.36,180.55l-384.4 0c20.27,-87.02 -9.59,-139.4 -87.36,-180.55l0.33 -314.84c-0.07,-87.53 -92.6,-86.17 -93.89,-5.87l0.37 320.71z"/>
   <g style="clip-path:url(#id0)">
    <g>
     <rect class="fil1 str0" x="-220.59" y="-190.59" width="3097.35" height="3135.02"/>
    </g>
   </g>
   <path class="fil2" d="M1865.9 2285.24c0,-58.84 93.19,-58.84 93.19,0 0,58.84 -93.19,58.84 -93.19,0zm-372.75 0c0,-58.84 93.19,-58.84 93.19,0 0,58.84 -93.19,58.84 -93.19,0zm-652.31 0c0,-58.84 93.19,-58.84 93.19,0 0,58.84 -93.19,58.84 -93.19,0zm-186.37 -291.21l0 -1188.14c0,-90.39 61.04,-151.43 151.43,-151.43l1188.14 0c89.09,0 151.43,62.34 151.43,151.43l0 1188.14c0,89.09 -62.34,151.43 -151.43,151.43l-1188.14 0c-89.09,0 -151.43,-62.34 -151.43,-151.43zm1584.19 -221.32c0,-58.84 93.19,-58.84 93.19,0 0,58.84 -93.19,58.84 -93.19,0zm-1770.56 0c0,-58.84 93.19,-58.84 93.19,0 0,58.84 -93.19,58.84 -93.19,0zm1770.56 -372.75c0,-58.84 93.19,-58.84 93.19,0 0,58.84 -93.19,58.84 -93.19,0zm-1770.56 0c0,-58.84 93.19,-58.84 93.19,0 0,58.84 -93.19,58.84 -93.19,0zm1770.56 -372.75c0,-58.84 93.19,-58.84 93.19,0 0,58.84 -93.19,58.84 -93.19,0zm-1770.56 0c0,-58.84 93.19,-58.84 93.19,0 0,58.84 -93.19,58.84 -93.19,0zm1397.81 -512.53c0,-58.84 93.19,-58.84 93.19,0 0,58.84 -93.19,58.84 -93.19,0zm-372.75 0c0,-58.84 93.19,-58.84 93.19,0 0,58.84 -93.19,58.84 -93.19,0zm-652.31 0c0,-58.84 93.19,-58.84 93.19,0 0,58.84 -93.19,58.84 -93.19,0zm0 -133.96c-77.84,41.18 -107.61,93.67 -87.36,180.55 -14.49,6.96 -30.79,8.26 -48.46,15.61 -42.07,17.5 -83.06,52.17 -107.85,90.18 -45.26,69.4 -35.9,118.28 -35.9,226.19 -87.02,-20.27 -139.4,9.59 -180.55,87.36l-110.66 0c-16.87,-72.4 -49.96,-156.87 -74.87,-227.99 -25.51,-72.84 -75.97,-51.57 -146.45,-51.57 -28.17,0 -46.59,18.42 -46.59,46.59 0,54.91 50.9,46.59 104.84,46.59 7.67,32.91 21.41,67.2 32.75,101.21 66.48,199.38 23.22,178.35 240.99,178.35 12.38,23.41 21.15,45.31 42.93,61.9 38.82,29.57 89.96,36.56 137.62,25.46l0 104.83c-87.02,-20.27 -139.4,9.59 -180.55,87.36l-314.84 -0.33c-87.53,0.07 -86.17,92.6 -5.87,93.89l320.71 -0.37c41.18,77.84 93.67,107.6 180.55,87.36l0 104.83c-87.02,-20.27 -139.4,9.59 -180.55,87.36 -213.95,0 -174.46,-21.3 -239.53,173.98 -10.59,31.79 -26.37,71.93 -34.2,105.58 -53.93,0 -104.84,-8.32 -104.84,46.59 0,66.39 96.82,46.59 139.78,46.59 52.57,0 64.81,-86.63 77.91,-125.94 16.49,-49.44 39.05,-105.68 50.22,-153.63l110.66 0c41.18,77.84 93.67,107.61 180.55,87.36 0,134.96 -3.35,218.15 98.84,291.38 12.17,8.72 26.2,16.7 40.86,23.21 17.02,7.56 37.34,10.12 52.5,17.39 -20.27,87.02 9.59,139.4 87.36,180.55l-0.33 314.84c0.07,87.53 92.6,86.17 93.89,5.87l-0.37 -320.71c77.84,-41.18 107.61,-93.67 87.36,-180.55l384.4 0c-20.27,87.02 9.59,139.4 87.36,180.55l-0.33 314.84c0.07,87.53 92.6,86.17 93.89,5.87l-0.38 -320.71c77.84,-41.18 107.61,-93.67 87.36,-180.55l104.84 0c-20.27,87.02 9.59,139.4 87.36,180.55l-0.33 314.84c0.07,87.53 92.6,86.17 93.89,5.87l-0.37 -320.71c77.84,-41.18 107.61,-93.67 87.36,-180.55 53.74,-25.79 99.88,-19.28 156.3,-105.79 45.26,-69.4 35.9,-118.28 35.9,-226.19 87.02,20.27 139.4,-9.59 180.55,-87.36l110.66 0c11.17,47.95 33.73,104.18 50.22,153.63 8.98,26.92 16.34,50.65 24.65,74.36 25.51,72.84 75.97,51.57 146.45,51.57 28.17,0 46.59,-18.42 46.59,-46.59 0,-54.91 -50.9,-46.59 -104.84,-46.59 -15.94,-68.43 -45.58,-138.85 -67.67,-206.07 -33.19,-101 -60.04,-73.49 -206.07,-73.49 -41.18,-77.84 -93.67,-107.61 -180.55,-87.36l0 -104.83c87.02,20.27 139.4,-9.59 180.55,-87.36l314.84 0.33c87.53,-0.07 86.17,-92.6 5.87,-93.89l-320.71 0.37c-41.18,-77.84 -93.67,-107.6 -180.55,-87.36l0 -104.83c87.02,20.27 139.4,-9.59 180.55,-87.36 213.95,0 174.46,21.3 239.53,-173.98 10.59,-31.79 26.37,-71.93 34.2,-105.58 53.93,0 104.84,8.32 104.84,-46.59 0,-66.39 -96.82,-46.59 -139.78,-46.59 -33.53,0 -43.16,23.83 -51.74,47.27 -9.87,26.99 -16.65,50.1 -26.18,78.66 -16.49,49.44 -39.05,105.68 -50.22,153.63l-110.66 0c-41.18,-77.84 -93.67,-107.61 -180.55,-87.36 0,-134.96 3.35,-218.15 -98.84,-291.38 -28.03,-20.09 -63.67,-26.35 -93.36,-40.6 20.27,-87.02 -9.59,-139.4 -87.36,-180.55l0.33 -314.84c-0.07,-87.53 -92.6,-86.17 -93.89,-5.87l0.37 320.71c-77.84,41.18 -107.61,93.67 -87.36,180.55l-104.84 0c20.28,-87.02 -9.59,-139.4 -87.36,-180.55l0.33 -314.84c-0.07,-87.53 -92.6,-86.17 -93.89,-5.87l0.37 320.71c-77.84,41.18 -107.61,93.67 -87.36,180.55l-384.4 0c20.27,-87.02 -9.59,-139.4 -87.36,-180.55l0.33 -314.84c-0.07,-87.53 -92.6,-86.17 -93.89,-5.87l0.37 320.71z"/>
   <path class="fil0" d="M840.84 1906.67l0 -1013.41c0,-28.79 23.63,-52.42 52.42,-52.42l1013.41 0c28.79,0 52.42,23.63 52.42,52.42l0 1013.41c0,28.79 -23.63,52.42 -52.42,52.42l-1013.41 0c-28.79,0 -52.42,-23.63 -52.42,-52.42zm-93.19 -1030.89l0 1048.36c0,64.07 64.06,128.13 128.13,128.13l1048.36 0c64.07,0 128.13,-64.06 128.13,-128.13l0 -1048.36c0,-64.07 -64.06,-128.13 -128.13,-128.13l-1048.36 0c-64.07,0 -128.13,64.06 -128.13,128.13z"/>
   <g style="clip-path:url(#id1)">
    <g>
     <rect class="fil1 str0" x="-220.59" y="-190.59" width="3097.35" height="3135.02"/>
    </g>
   </g>
   <path class="fil2" d="M840.84 1906.67l0 -1013.41c0,-28.79 23.63,-52.42 52.42,-52.42l1013.41 0c28.79,0 52.42,23.63 52.42,52.42l0 1013.41c0,28.79 -23.63,52.42 -52.42,52.42l-1013.41 0c-28.79,0 -52.42,-23.63 -52.42,-52.42zm-93.19 -1030.89l0 1048.36c0,64.07 64.06,128.13 128.13,128.13l1048.36 0c64.07,0 128.13,-64.06 128.13,-128.13l0 -1048.36c0,-64.07 -64.06,-128.13 -128.13,-128.13l-1048.36 0c-64.07,0 -128.13,64.06 -128.13,128.13z"/>
   <path class="fil0" d="M934.02 1399.96c0,30.93 30.43,50.83 48.05,68.43l116.48 116.48c17.61,17.62 37.5,48.05 68.43,48.05 28.17,0 46.59,-18.42 46.59,-46.59 0,-46.07 -125.2,-129.81 -163.08,-186.37 37.87,-56.56 163.08,-140.3 163.08,-186.37 0,-28.17 -18.42,-46.59 -46.59,-46.59 -30.93,0 -50.83,30.43 -68.43,48.05l-116.48 116.48c-17.62,17.61 -48.05,37.5 -48.05,68.43z"/>
   <g style="clip-path:url(#id2)">
    <g>
     <rect class="fil1 str0" x="-220.59" y="-190.59" width="3097.35" height="3135.02"/>
    </g>
   </g>
   <path class="fil2" d="M934.02 1399.96c0,30.93 30.43,50.83 48.05,68.43l116.48 116.48c17.61,17.62 37.5,48.05 68.43,48.05 28.17,0 46.59,-18.42 46.59,-46.59 0,-46.07 -125.2,-129.81 -163.08,-186.37 37.87,-56.56 163.08,-140.3 163.08,-186.37 0,-28.17 -18.42,-46.59 -46.59,-46.59 -30.93,0 -50.83,30.43 -68.43,48.05l-116.48 116.48c-17.62,17.61 -48.05,37.5 -48.05,68.43z"/>
   <path class="fil0" d="M1586.33 1213.59c0,46.07 125.2,129.81 163.08,186.37 -37.87,56.56 -163.08,140.3 -163.08,186.37 0,28.17 18.42,46.59 46.59,46.59 32.77,0 92.85,-72.47 126.68,-106.29 119.53,-119.53 139.53,-113.89 58.24,-195.11l-116.48 -116.48c-17.61,-17.62 -37.5,-48.05 -68.43,-48.05 -28.17,0 -46.59,18.42 -46.59,46.59z"/>
   <g style="clip-path:url(#id3)">
    <g>
     <rect class="fil1 str0" x="-220.59" y="-190.59" width="3097.35" height="3135.02"/>
    </g>
   </g>
   <path class="fil2" d="M1586.33 1213.59c0,46.07 125.2,129.81 163.08,186.37 -37.87,56.56 -163.08,140.3 -163.08,186.37 0,28.17 18.42,46.59 46.59,46.59 32.77,0 92.85,-72.47 126.68,-106.29 119.53,-119.53 139.53,-113.89 58.24,-195.11l-116.48 -116.48c-17.61,-17.62 -37.5,-48.05 -68.43,-48.05 -28.17,0 -46.59,18.42 -46.59,46.59z"/>
   <path class="fil0" d="M1306.77 1586.33c0,49.28 38.84,46.59 58.24,46.59 39.07,0 62.25,-144.17 75.71,-198.02 9.03,-36.12 17.22,-68.9 26.79,-107.17 12.77,-51.1 58.8,-160.74 -20.96,-160.74 -45.84,0 -49.07,44.3 -58.25,81.53 -12.37,50.13 -81.53,310.48 -81.53,337.81z"/>
   <g style="clip-path:url(#id4)">
    <g>
     <rect class="fil1 str0" x="-220.59" y="-190.59" width="3097.35" height="3135.02"/>
    </g>
   </g>
   <path class="fil2" d="M1306.77 1586.33c0,49.28 38.84,46.59 58.24,46.59 39.07,0 62.25,-144.17 75.71,-198.02 9.03,-36.12 17.22,-68.9 26.79,-107.17 12.77,-51.1 58.8,-160.74 -20.96,-160.74 -45.84,0 -49.07,44.3 -58.25,81.53 -12.37,50.13 -81.53,310.48 -81.53,337.81z"/>
  </g>
 </g>
</svg>
