<?xml version="1.0" encoding="UTF-8"?>
<!DOCTYPE svg PUBLIC "-//W3C//DTD SVG 1.1//EN" "http://www.w3.org/Graphics/SVG/1.1/DTD/svg11.dtd">
<!-- Creator: CorelDRAW -->
<svg xmlns="http://www.w3.org/2000/svg" xml:space="preserve" width="2.65779in" height="3.77183in" version="1.1" style="shape-rendering:geometricPrecision; text-rendering:geometricPrecision; image-rendering:optimizeQuality; fill-rule:evenodd; clip-rule:evenodd"
viewBox="0 0 5811.07 8246.84"
 xmlns:xlink="http://www.w3.org/1999/xlink"
 xmlns:xodm="http://www.corel.com/coreldraw/odm/2003">
 <defs>
  <style type="text/css">
   <![CDATA[
    .str0 {stroke:black;stroke-width:15.18;stroke-miterlimit:2.61313}
    .fil2 {fill:none}
    .fil0 {fill:black}
    .fil1 {fill:url(#id6)}
   ]]>
  </style>
    <clipPath id="id0">
     <path d="M1461.47 7011.55l2888.14 0 0 991.71 -2888.14 0 0 -991.71zm-243.57 -156.58l0 1148.29 -956.92 0 0 -2174.8c0,-160.44 116.92,-295.77 278.37,-295.77l4732.36 0c161.45,0 278.37,135.33 278.37,295.77l0 2174.8 -956.91 0 0 -1148.29c0,-41.9 -62.49,-104.4 -104.39,-104.4l-3166.5 0c-41.9,0 -104.39,62.49 -104.39,104.4zm974.3 -1931.23l1426.67 0 0 347.97 -1426.67 0 0 -347.97zm2505.37 -260.97l-3584.07 0c-140.01,0 -295.77,-109.45 -295.77,-243.58l0 -2000.82c0,-183.64 148.78,-278.37 330.57,-278.37l3514.47 0c180.09,0 330.56,93.2 330.56,278.37l0 1966.02c0,165.08 -133.48,278.37 -295.77,278.37zm556.75 -1948.62l295.77 0 0 1374.46 -295.77 0 0 -1374.46zm-4993.33 0l295.77 0 0 1374.46 -295.77 0 0 -1374.46zm2557.56 -1217.89l173.98 0 0 400.16 -173.98 0 0 -400.16zm-417.57 -748.13c0,-524.72 739.43,-698.49 957.26,-209.13 191.25,429.64 -240.33,843.57 -649.99,667.4 -182.17,-78.34 -307.27,-275.18 -307.27,-458.26zm-243.57 -52.19c0,630.31 417.56,653.09 417.56,765.53l0 434.95 -1531.05 0c-226.05,0 -487.16,240.87 -487.16,556.75 -346.79,0 -556.75,-59.78 -556.75,191.39l0 1513.66c0,250.81 159.8,191.38 556.75,191.38 0,112.21 17.75,177.2 57.29,255.88l92.42 133.75c134.49,144.12 279.2,184.51 528.82,184.51l713.34 0 0 347.97 -1357.07 0c-100.74,0 -192.72,21.3 -261.33,51.85 -239.94,106.81 -330.22,334.75 -330.22,626.7l0 2087.81c0,117.16 21,208.78 139.19,208.78l5532.69 0c118.18,0 139.19,-91.61 139.19,-208.78l0 -2087.81c0,-386.89 -180.42,-678.54 -591.55,-678.54l-1357.08 0 0 -347.97 713.34 0c379.21,0 678.53,-165.36 678.53,-574.14 396.95,0 556.76,59.43 556.76,-191.38l0 -1513.66c0,-251.17 -209.97,-191.39 -556.76,-191.39 0,-224 -126.73,-415.53 -286.7,-496.23 -54.78,-27.64 -129.83,-60.52 -200.45,-60.52l-1531.06 0 0 -434.95c0,-62.01 58.7,-63.51 135.52,-125.46 67.6,-54.52 83.59,-70.96 137.78,-140.59 348.02,-447.25 35.28,-1195.41 -551.68,-1195.41l-104.39 0c-352.09,0 -695.93,343.84 -695.93,695.94z"/>
    </clipPath>
    <clipPath id="id1">
     <path d="M1461.47 3131.71c0,-272.77 345.27,-407.34 529.24,-181.27 16.3,20.03 17.84,22.49 27.43,42.15 161.96,331.75 -280.47,548.45 -472.85,333.66 -32.62,-36.42 -83.82,-133.66 -83.82,-194.55zm-243.57 -34.79c0,182.54 26.24,285.42 169.16,422.38 207.61,198.95 524.11,201.32 731.54,8.56 537.41,-499.34 -218.94,-1296.27 -731.72,-801.31 -83.9,80.98 -168.97,212.04 -168.97,370.37z"/>
    </clipPath>
    <clipPath id="id2">
     <path d="M3758.05 3131.71c0,-414.13 591.55,-356.8 591.55,-17.4 0,411.72 -591.55,370.66 -591.55,17.4zm-243.57 -34.79c0,182.54 26.24,285.42 169.16,422.38 207.17,198.53 536.88,202.31 731.67,8.69 59.12,-58.76 73.91,-65.6 114.63,-146.34 113.56,-225.12 78.38,-471.06 -96.99,-646.47 -343.7,-343.8 -918.47,-75.66 -918.47,361.73z"/>
    </clipPath>
    <clipPath id="id3">
     <path d="M2226.99 4314.8l1357.08 0c101.06,0 165.33,-36.73 169.55,-123.72 4.73,-97.57 -66.16,-137.25 -169.55,-137.25l-1357.08 0c-101.06,0 -165.33,36.72 -169.55,123.71 -4.73,97.58 66.16,137.26 169.55,137.26z"/>
    </clipPath>
    <clipPath id="id4">
     <path d="M748.13 5950.25c119.77,0 119.77,156.58 0,156.58 -88.86,0 -88.86,-156.58 0,-156.58zm17.41 417.56c426.8,0 454.6,-678.53 -17.41,-678.53 -135.03,0 -323.52,137.37 -319.66,345.64 3.39,182.29 160.32,332.9 337.06,332.9z"/>
    </clipPath>
    <clipPath id="id5">
     <path d="M5062.93 6106.83c-119.77,0 -119.77,-156.58 0,-156.58 88.86,0 88.86,156.58 0,156.58zm-347.97 -86.98c0,487.27 661.14,394.76 661.14,69.59l0 -121.79c0,-129.66 -180.37,-278.37 -313.17,-278.37 -186.66,0 -347.97,145.03 -347.97,330.57z"/>
    </clipPath>
  <linearGradient id="id6" gradientUnits="objectBoundingBox" x1="28.1864%" y1="25.3341%" x2="85.7448%" y2="93.3144%">
   <stop offset="0" style="stop-opacity:1; stop-color:#AD343E"/>
   <stop offset="0.419608" style="stop-opacity:1; stop-color:#D64545"/>
   <stop offset="1" style="stop-opacity:1; stop-color:#FF564D"/>
  </linearGradient>
 </defs>
 <g id="Layer_x0020_1">
  <metadata id="CorelCorpID_0Corel-Layer"/>
  <g id="_1891073327376">
   <path class="fil0" d="M1461.47 7011.55l2888.14 0 0 991.71 -2888.14 0 0 -991.71zm-243.57 -156.58l0 1148.29 -956.92 0 0 -2174.8c0,-160.44 116.92,-295.77 278.37,-295.77l4732.36 0c161.45,0 278.37,135.33 278.37,295.77l0 2174.8 -956.91 0 0 -1148.29c0,-41.9 -62.49,-104.4 -104.39,-104.4l-3166.5 0c-41.9,0 -104.39,62.49 -104.39,104.4zm974.3 -1931.23l1426.67 0 0 347.97 -1426.67 0 0 -347.97zm2505.37 -260.97l-3584.07 0c-140.01,0 -295.77,-109.45 -295.77,-243.58l0 -2000.82c0,-183.64 148.78,-278.37 330.57,-278.37l3514.47 0c180.09,0 330.56,93.2 330.56,278.37l0 1966.02c0,165.08 -133.48,278.37 -295.77,278.37zm556.75 -1948.62l295.77 0 0 1374.46 -295.77 0 0 -1374.46zm-4993.33 0l295.77 0 0 1374.46 -295.77 0 0 -1374.46zm2557.56 -1217.89l173.98 0 0 400.16 -173.98 0 0 -400.16zm-417.57 -748.13c0,-524.72 739.43,-698.49 957.26,-209.13 191.25,429.64 -240.33,843.57 -649.99,667.4 -182.17,-78.34 -307.27,-275.18 -307.27,-458.26zm-243.57 -52.19c0,630.31 417.56,653.09 417.56,765.53l0 434.95 -1531.05 0c-226.05,0 -487.16,240.87 -487.16,556.75 -346.79,0 -556.75,-59.78 -556.75,191.39l0 1513.66c0,250.81 159.8,191.38 556.75,191.38 0,112.21 17.75,177.2 57.29,255.88l92.42 133.75c134.49,144.12 279.2,184.51 528.82,184.51l713.34 0 0 347.97 -1357.07 0c-100.74,0 -192.72,21.3 -261.33,51.85 -239.94,106.81 -330.22,334.75 -330.22,626.7l0 2087.81c0,117.16 21,208.78 139.19,208.78l5532.69 0c118.18,0 139.19,-91.61 139.19,-208.78l0 -2087.81c0,-386.89 -180.42,-678.54 -591.55,-678.54l-1357.08 0 0 -347.97 713.34 0c379.21,0 678.53,-165.36 678.53,-574.14 396.95,0 556.76,59.43 556.76,-191.38l0 -1513.66c0,-251.17 -209.97,-191.39 -556.76,-191.39 0,-224 -126.73,-415.53 -286.7,-496.23 -54.78,-27.64 -129.83,-60.52 -200.45,-60.52l-1531.06 0 0 -434.95c0,-62.01 58.7,-63.51 135.52,-125.46 67.6,-54.52 83.59,-70.96 137.78,-140.59 348.02,-447.25 35.28,-1195.41 -551.68,-1195.41l-104.39 0c-352.09,0 -695.93,343.84 -695.93,695.94z"/>
   <g style="clip-path:url(#id0)">
    <g>
     <rect class="fil1 str0" x="-743.98" y="-67.92" width="7622.48" height="8718.38"/>
    </g>
   </g>
   <path class="fil2" d="M1461.47 7011.55l2888.14 0 0 991.71 -2888.14 0 0 -991.71zm-243.57 -156.58l0 1148.29 -956.92 0 0 -2174.8c0,-160.44 116.92,-295.77 278.37,-295.77l4732.36 0c161.45,0 278.37,135.33 278.37,295.77l0 2174.8 -956.91 0 0 -1148.29c0,-41.9 -62.49,-104.4 -104.39,-104.4l-3166.5 0c-41.9,0 -104.39,62.49 -104.39,104.4zm974.3 -1931.23l1426.67 0 0 347.97 -1426.67 0 0 -347.97zm2505.37 -260.97l-3584.07 0c-140.01,0 -295.77,-109.45 -295.77,-243.58l0 -2000.82c0,-183.64 148.78,-278.37 330.57,-278.37l3514.47 0c180.09,0 330.56,93.2 330.56,278.37l0 1966.02c0,165.08 -133.48,278.37 -295.77,278.37zm556.75 -1948.62l295.77 0 0 1374.46 -295.77 0 0 -1374.46zm-4993.33 0l295.77 0 0 1374.46 -295.77 0 0 -1374.46zm2557.56 -1217.89l173.98 0 0 400.16 -173.98 0 0 -400.16zm-417.57 -748.13c0,-524.72 739.43,-698.49 957.26,-209.13 191.25,429.64 -240.33,843.57 -649.99,667.4 -182.17,-78.34 -307.27,-275.18 -307.27,-458.26zm-243.57 -52.19c0,630.31 417.56,653.09 417.56,765.53l0 434.95 -1531.05 0c-226.05,0 -487.16,240.87 -487.16,556.75 -346.79,0 -556.75,-59.78 -556.75,191.39l0 1513.66c0,250.81 159.8,191.38 556.75,191.38 0,112.21 17.75,177.2 57.29,255.88l92.42 133.75c134.49,144.12 279.2,184.51 528.82,184.51l713.34 0 0 347.97 -1357.07 0c-100.74,0 -192.72,21.3 -261.33,51.85 -239.94,106.81 -330.22,334.75 -330.22,626.7l0 2087.81c0,117.16 21,208.78 139.19,208.78l5532.69 0c118.18,0 139.19,-91.61 139.19,-208.78l0 -2087.81c0,-386.89 -180.42,-678.54 -591.55,-678.54l-1357.08 0 0 -347.97 713.34 0c379.21,0 678.53,-165.36 678.53,-574.14 396.95,0 556.76,59.43 556.76,-191.38l0 -1513.66c0,-251.17 -209.97,-191.39 -556.76,-191.39 0,-224 -126.73,-415.53 -286.7,-496.23 -54.78,-27.64 -129.83,-60.52 -200.45,-60.52l-1531.06 0 0 -434.95c0,-62.01 58.7,-63.51 135.52,-125.46 67.6,-54.52 83.59,-70.96 137.78,-140.59 348.02,-447.25 35.28,-1195.41 -551.68,-1195.41l-104.39 0c-352.09,0 -695.93,343.84 -695.93,695.94z"/>
   <path class="fil0" d="M1461.47 3131.71c0,-272.77 345.27,-407.34 529.24,-181.27 16.3,20.03 17.84,22.49 27.43,42.15 161.96,331.75 -280.47,548.45 -472.85,333.66 -32.62,-36.42 -83.82,-133.66 -83.82,-194.55zm-243.57 -34.79c0,182.54 26.24,285.42 169.16,422.38 207.61,198.95 524.11,201.32 731.54,8.56 537.41,-499.34 -218.94,-1296.27 -731.72,-801.31 -83.9,80.98 -168.97,212.04 -168.97,370.37z"/>
   <g style="clip-path:url(#id1)">
    <g>
     <rect class="fil1 str0" x="-743.98" y="-67.92" width="7622.48" height="8718.38"/>
    </g>
   </g>
   <path class="fil2" d="M1461.47 3131.71c0,-272.77 345.27,-407.34 529.24,-181.27 16.3,20.03 17.84,22.49 27.43,42.15 161.96,331.75 -280.47,548.45 -472.85,333.66 -32.62,-36.42 -83.82,-133.66 -83.82,-194.55zm-243.57 -34.79c0,182.54 26.24,285.42 169.16,422.38 207.61,198.95 524.11,201.32 731.54,8.56 537.41,-499.34 -218.94,-1296.27 -731.72,-801.31 -83.9,80.98 -168.97,212.04 -168.97,370.37z"/>
   <path class="fil0" d="M3758.05 3131.71c0,-414.13 591.55,-356.8 591.55,-17.4 0,411.72 -591.55,370.66 -591.55,17.4zm-243.57 -34.79c0,182.54 26.24,285.42 169.16,422.38 207.17,198.53 536.88,202.31 731.67,8.69 59.12,-58.76 73.91,-65.6 114.63,-146.34 113.56,-225.12 78.38,-471.06 -96.99,-646.47 -343.7,-343.8 -918.47,-75.66 -918.47,361.73z"/>
   <g style="clip-path:url(#id2)">
    <g>
     <rect class="fil1 str0" x="-743.98" y="-67.92" width="7622.48" height="8718.38"/>
    </g>
   </g>
   <path class="fil2" d="M3758.05 3131.71c0,-414.13 591.55,-356.8 591.55,-17.4 0,411.72 -591.55,370.66 -591.55,17.4zm-243.57 -34.79c0,182.54 26.24,285.42 169.16,422.38 207.17,198.53 536.88,202.31 731.67,8.69 59.12,-58.76 73.91,-65.6 114.63,-146.34 113.56,-225.12 78.38,-471.06 -96.99,-646.47 -343.7,-343.8 -918.47,-75.66 -918.47,361.73z"/>
   <path class="fil0" d="M2226.99 4314.8l1357.08 0c101.06,0 165.33,-36.73 169.55,-123.72 4.73,-97.57 -66.16,-137.25 -169.55,-137.25l-1357.08 0c-101.06,0 -165.33,36.72 -169.55,123.71 -4.73,97.58 66.16,137.26 169.55,137.26z"/>
   <g style="clip-path:url(#id3)">
    <g>
     <rect class="fil1 str0" x="-743.98" y="-67.92" width="7622.48" height="8718.38"/>
    </g>
   </g>
   <path class="fil2" d="M2226.99 4314.8l1357.08 0c101.06,0 165.33,-36.73 169.55,-123.72 4.73,-97.57 -66.16,-137.25 -169.55,-137.25l-1357.08 0c-101.06,0 -165.33,36.72 -169.55,123.71 -4.73,97.58 66.16,137.26 169.55,137.26z"/>
   <path class="fil0" d="M748.13 5950.25c119.77,0 119.77,156.58 0,156.58 -88.86,0 -88.86,-156.58 0,-156.58zm17.41 417.56c426.8,0 454.6,-678.53 -17.41,-678.53 -135.03,0 -323.52,137.37 -319.66,345.64 3.39,182.29 160.32,332.9 337.06,332.9z"/>
   <g style="clip-path:url(#id4)">
    <g>
     <rect class="fil1 str0" x="-743.98" y="-67.92" width="7622.48" height="8718.38"/>
    </g>
   </g>
   <path class="fil2" d="M748.13 5950.25c119.77,0 119.77,156.58 0,156.58 -88.86,0 -88.86,-156.58 0,-156.58zm17.41 417.56c426.8,0 454.6,-678.53 -17.41,-678.53 -135.03,0 -323.52,137.37 -319.66,345.64 3.39,182.29 160.32,332.9 337.06,332.9z"/>
   <path class="fil0" d="M5062.93 6106.83c-119.77,0 -119.77,-156.58 0,-156.58 88.86,0 88.86,156.58 0,156.58zm-347.97 -86.98c0,487.27 661.14,394.76 661.14,69.59l0 -121.79c0,-129.66 -180.37,-278.37 -313.17,-278.37 -186.66,0 -347.97,145.03 -347.97,330.57z"/>
   <g style="clip-path:url(#id5)">
    <g>
     <rect class="fil1 str0" x="-743.98" y="-67.92" width="7622.48" height="8718.38"/>
    </g>
   </g>
   <path class="fil2" d="M5062.93 6106.83c-119.77,0 -119.77,-156.58 0,-156.58 88.86,0 88.86,156.58 0,156.58zm-347.97 -86.98c0,487.27 661.14,394.76 661.14,69.59l0 -121.79c0,-129.66 -180.37,-278.37 -313.17,-278.37 -186.66,0 -347.97,145.03 -347.97,330.57z"/>
  </g>
 </g>
</svg>
